<svg width="81" height="52" viewBox="0 0 81 52" fill="none" xmlns="http://www.w3.org/2000/svg">
<mask id="path-1-outside-1_789_192" maskUnits="userSpaceOnUse" x="-1" y="0" width="82" height="52" fill="black">
<rect fill="white" x="-1" width="82" height="52"/>
<path fill-rule="evenodd" clip-rule="evenodd" d="M55.3818 3.13337C55.0792 3.24158 54.8276 3.33153 54.6331 3.3926C53.5044 3.74702 52.3208 3.8045 51.1153 3.86157L51.0892 3.86281C49.8837 3.91986 48.647 3.9784 47.3569 4.31301C46.7037 4.48241 46.3169 4.64046 46.0628 4.79269C45.9207 4.87785 45.8169 4.96294 45.7288 5.05303C47.1597 4.72876 49.1726 4.37609 51.3187 4.19797C53.8949 3.98413 56.6872 4.01965 58.8964 4.67389C61.6442 5.48764 65.3885 7.65546 68.4094 9.88296C69.9221 10.9983 71.2633 12.1357 72.2146 13.1358C72.6897 13.6354 73.0733 14.1067 73.3321 14.5285C73.5853 14.9417 73.7424 15.3443 73.7052 15.6945C73.6877 15.8589 73.6365 16.0147 73.5228 16.1287C73.4043 16.2478 73.2506 16.2891 73.0984 16.2863C72.8173 16.281 72.4711 16.1236 72.1042 15.9071C71.3814 15.481 70.4069 14.7179 69.3139 13.8619L69.3137 13.8618L69.1818 13.7584C68.0277 12.8549 66.7375 11.8503 65.4349 10.9928C64.1295 10.1336 62.8287 9.43375 61.655 9.12815C60.4195 8.80645 59.2182 8.36574 57.9886 7.91479C54.3199 6.56899 50.4017 5.13173 44.5839 6.49266C44.2848 6.56264 44.0085 6.62624 43.7539 6.68375C43.7387 6.69107 43.7232 6.6984 43.7078 6.70574C43.0827 7.0016 42.2082 7.27827 41.2418 7.54714C40.606 7.72406 39.9214 7.89993 39.2337 8.07662L39.2335 8.07669C38.8748 8.16887 38.515 8.26125 38.161 8.35416C37.1236 8.62631 36.1307 8.90353 35.3198 9.19703C34.9146 9.34371 34.5594 9.49279 34.2693 9.64514C33.9768 9.79874 33.7635 9.94897 33.6306 10.0931L33.6226 10.1017C35.7197 9.44859 38.724 8.76639 41.8712 8.54578C45.5141 8.29046 49.3885 8.65055 52.2641 10.4315C53.7118 11.3281 55.1772 12.1903 56.5908 13.022C58.5922 14.1995 60.4899 15.3161 62.087 16.3831C63.454 17.2962 64.6198 18.1849 65.4605 19.0609C66.2982 19.9338 66.839 20.8208 66.9022 21.731C66.9193 21.9766 66.8678 22.2035 66.7018 22.3639C66.5399 22.5203 66.3143 22.5687 66.0858 22.5659C65.6337 22.5603 65.008 22.3522 64.2877 22.0313C62.8315 21.3827 60.8476 20.2064 58.7811 18.9322C58.1259 18.5283 57.4623 18.1144 56.8034 17.7033C55.3765 16.8133 53.9715 15.9369 52.7223 15.2053C51.8099 14.6708 50.9866 14.2171 50.3039 13.8941C49.6102 13.5657 49.0963 13.3896 48.7886 13.3774C48.0264 13.3471 47.0095 13.0098 45.8241 12.6056C45.753 12.5815 45.6813 12.557 45.6089 12.5323C44.4566 12.1389 43.1249 11.6842 41.6387 11.3365C38.4843 10.5986 34.5965 10.233 30.3902 12.0979C29.6942 12.4508 28.9444 12.8106 28.1953 13.1557C27.0103 13.7017 25.8246 14.212 24.8548 14.6006C23.8956 14.9849 23.1224 15.2605 22.7774 15.3229C22.6517 15.3456 22.4626 15.4161 22.2133 15.5386C21.9682 15.659 21.6799 15.8221 21.3597 16.018C20.7197 16.4097 19.9645 16.9256 19.1951 17.476C17.657 18.5764 16.0747 19.8063 15.2677 20.4367C14.8366 20.7735 14.3567 20.9911 13.8317 21.1875C13.6076 21.2714 13.3836 21.3487 13.1512 21.4289C12.8201 21.5432 12.4719 21.6634 12.0821 21.8167C10.7951 22.3229 9.20614 23.1391 7.21124 25.009C4.00881 28.0109 1.01412 32.5863 1.51686 38.1208C1.94234 42.8048 5.68827 46.1057 10.1516 48.1299C14.612 50.1528 19.7105 50.8617 22.7016 50.4112C24.581 50.1282 27.5036 49.2606 30.8587 48.0981C34.2086 46.9371 37.9742 45.4878 41.5324 44.0483C45.0906 42.609 48.4395 41.1805 50.9559 40.062C52.2145 39.5027 53.2634 39.0214 54.0261 38.6552C54.4076 38.472 54.7157 38.3186 54.9417 38.199C55.1784 38.0738 55.3008 37.9981 55.3343 37.9687C55.4611 37.8584 55.8652 37.5668 56.4591 37.1497C57.0596 36.728 57.8685 36.1685 58.8182 35.5164C60.718 34.212 63.1835 32.5349 65.6771 30.8439C68.4744 28.9469 71.3069 27.0328 73.4181 25.6061C75.0724 24.4881 76.2842 23.6692 76.6892 23.3922C77.1041 23.1087 77.7169 22.3745 78.2718 21.2816C78.8225 20.1972 79.3036 18.7837 79.4734 17.1658C79.8122 13.9389 78.9143 9.88184 74.8153 5.9764C67.342 -1.14387 58.5551 1.99857 55.3818 3.13337ZM41.1071 7.10843C40.4784 7.2832 39.8059 7.45599 39.1248 7.63092C38.765 7.7234 38.4027 7.81647 38.0434 7.91075C37.0051 8.18315 35.9944 8.46484 35.1621 8.76609C34.7455 8.91678 34.3691 9.07401 34.0539 9.23965C33.7409 9.40399 33.475 9.58336 33.2907 9.78319C33.1519 9.93377 32.9046 10.1273 32.5603 10.3543C32.2194 10.579 31.7964 10.8283 31.3167 11.0917C30.3573 11.6184 29.1806 12.1963 28.0013 12.7396C26.8226 13.2827 25.6442 13.7899 24.6825 14.1752C23.7101 14.5648 22.9841 14.8194 22.6949 14.8717C22.5035 14.9063 22.2673 15.0005 22.009 15.1275C21.7464 15.2565 21.4447 15.4275 21.1179 15.6275C20.4642 16.0276 19.6987 16.5507 18.9257 17.1038C17.3791 18.2103 15.7902 19.4454 14.9827 20.0761C14.6067 20.3699 14.1784 20.5678 13.6692 20.7583C13.4723 20.832 13.255 20.9072 13.0235 20.9873C12.678 21.107 12.3006 21.2376 11.9124 21.3903C10.5759 21.9159 8.936 22.7621 6.89479 24.6754C3.63945 27.7268 0.536874 32.431 1.05746 38.162C1.50522 43.0912 5.43942 46.4969 9.96013 48.5472C14.4837 50.5985 19.673 51.3313 22.7707 50.8647C24.6968 50.5744 27.6554 49.6937 31.0104 48.531C34.3705 47.3668 38.1437 45.9143 41.7063 44.4731C45.2689 43.0318 48.6228 41.6015 51.1443 40.4807C52.4048 39.9203 53.4585 39.4369 54.2265 39.0682C54.6105 38.8839 54.9247 38.7275 55.1583 38.6039C55.3813 38.4858 55.5564 38.3851 55.638 38.3138C55.742 38.2235 56.12 37.9493 56.7252 37.5244C57.3237 37.1041 58.1312 36.5457 59.0805 35.8939C60.979 34.5901 63.4434 32.9137 65.937 31.2227C68.7316 29.3275 71.5636 27.4139 73.6755 25.9867L73.678 25.9849L73.684 25.9808C75.3358 24.8646 76.5457 24.0469 76.9505 23.7701C77.4583 23.4231 78.114 22.6096 78.6835 21.4883C79.2571 20.3587 79.7562 18.8916 79.9324 17.2134C80.2855 13.8481 79.3382 9.65052 75.1345 5.6453C67.438 -1.68774 58.3604 1.57434 55.2171 2.70393C54.9217 2.81007 54.6788 2.89738 54.4943 2.9553C53.432 3.28879 52.3093 3.34593 51.0931 3.40351L51.0505 3.40553C49.8549 3.4621 48.5774 3.52254 47.2406 3.86925C46.5676 4.04382 46.1326 4.21537 45.8248 4.39991C45.5097 4.58867 46.7025 3.47367 45.1843 4.98317C43.666 6.49266 41.7358 6.93366 41.1071 7.10843ZM44.9476 5.94155C50.6598 4.73009 54.6313 6.18822 58.226 7.50802H58.2262C59.4333 7.95125 60.598 8.37888 61.772 8.68453C63.0199 9.00946 64.3714 9.74275 65.6895 10.6104C67.0104 11.4798 68.3146 12.4959 69.4671 13.3981L69.5776 13.4846C70.6899 14.3556 71.6438 15.1025 72.3394 15.5127C72.7075 15.7298 72.9596 15.825 73.1072 15.8278C73.1695 15.8289 73.1879 15.8132 73.1951 15.8061C73.2071 15.7939 73.235 15.7544 73.2465 15.6465C73.267 15.4522 73.1789 15.1598 72.9381 14.7673C72.7027 14.3834 72.3429 13.9384 71.8793 13.4509C70.9531 12.477 69.6348 11.3573 68.1347 10.2513C65.1305 8.0362 61.4369 5.90475 58.7647 5.11341C56.638 4.48363 53.9143 4.44272 51.357 4.65498C48.9245 4.85687 46.665 5.28581 45.2537 5.63723C45.1787 5.72287 45.0923 5.81289 44.988 5.90603C44.9749 5.91784 44.9615 5.92967 44.9476 5.94155ZM32.388 11.0059C32.5384 10.9147 32.6615 10.7902 32.8096 10.7402C34.8445 10.0528 38.3015 9.25575 41.9037 9.00325C45.5125 8.75031 49.2681 9.11634 52.0201 10.8207C53.4903 11.7312 54.9627 12.5973 56.377 13.4292L56.3772 13.4294C58.3653 14.5987 60.2385 15.7006 61.8299 16.7637C63.1874 17.6706 64.3207 18.5375 65.1268 19.3775C65.9361 20.2208 66.3897 21.0104 66.4421 21.7626C66.4538 21.9326 66.4133 22.0031 66.3803 22.0349C66.3431 22.0708 66.2624 22.1095 66.0913 22.1074C65.744 22.1031 65.1955 21.9333 64.4762 21.6128C63.0529 20.9788 61.0946 19.8192 59.0242 18.5425C58.374 18.1416 57.7133 17.7294 57.0555 17.3193C55.6258 16.4274 54.2113 15.5451 52.9564 14.8102C52.0401 14.2734 51.2031 13.8117 50.5022 13.48C49.8127 13.1537 49.2204 12.9356 48.8071 12.9192C48.1279 12.8922 47.1843 12.5846 45.9735 12.1718C45.9018 12.1473 45.8289 12.1225 45.7553 12.0974C44.6054 11.7047 43.2539 11.2432 41.7444 10.8901C39.0646 10.2633 35.8784 9.97562 32.388 11.0059ZM28.544 25.7476C17.9048 22.1913 13.1502 25.9647 12.1048 28.1508L12.1046 28.1513C12.1031 28.154 12.0965 28.1669 12.1132 28.2074C12.1331 28.2558 12.1803 28.3262 12.2722 28.4175C12.4555 28.5998 12.7678 28.8183 13.2062 29.0675C14.0786 29.5633 15.393 30.148 17.0098 30.7804C20.2401 32.044 24.6426 33.4847 29.0429 34.7685C33.4429 36.0525 37.8335 37.1779 41.0393 37.8126C42.645 38.1304 43.9416 38.3228 44.791 38.3533C45.2235 38.3689 45.5074 38.3407 45.6559 38.2859C45.6861 38.2746 45.7044 38.2648 45.7147 38.2581C45.7129 38.2533 45.7104 38.2476 45.7071 38.2405C44.4303 35.5898 39.194 29.3074 28.544 25.7476ZM45.7187 38.2735C45.7187 38.2735 45.7187 38.2728 45.7187 38.2714C45.7189 38.2728 45.7187 38.2735 45.7187 38.2735ZM11.6882 27.9538C12.8722 25.4779 17.9272 21.715 28.6909 25.3128C39.4438 28.907 44.786 35.2663 46.123 38.0423C46.1829 38.1668 46.2088 38.3175 46.1347 38.462C46.066 38.5959 45.9373 38.6713 45.8162 38.7158C45.5752 38.8047 45.2113 38.8272 44.7744 38.8116C43.8858 38.7798 42.5585 38.581 40.9491 38.2625C37.7249 37.6239 33.32 36.4946 28.9128 35.2085C24.5056 33.9226 20.0888 32.4778 16.8409 31.2073C15.2186 30.5726 13.8793 29.9781 12.9773 29.4656C12.5286 29.2106 12.1735 28.9678 11.9461 28.7419C11.8327 28.6291 11.7387 28.5087 11.6862 28.3808C11.6312 28.2471 11.6195 28.0976 11.6882 27.9538ZM22.8032 18.2957C22.1609 18.3498 21.5644 18.4273 21.0412 18.5302C24.7957 16.033 32.6509 12.9129 40.9886 16.1137C46.7881 18.3401 51.8143 21.4524 55.3029 24.1072C57.0474 25.4348 58.4031 26.6448 59.277 27.5682C59.7149 28.0313 60.0251 28.4152 60.2032 28.7011C60.2918 28.8435 60.3402 28.9497 60.3596 29.0217C60.322 29.0221 60.2731 29.0201 60.2108 29.0139C60.0249 28.9953 59.7611 28.9451 59.4239 28.8637C58.752 28.7016 57.8205 28.4234 56.7059 28.0602C54.4782 27.3345 51.5378 26.2754 48.519 25.1436C42.4776 22.8788 36.1448 20.3313 34.5986 19.5912C33.7914 19.2048 32.6276 18.8995 31.3086 18.6744C29.9859 18.4485 28.4912 18.3008 27.0131 18.236C25.5351 18.1712 24.069 18.189 22.8032 18.2957ZM60.3688 29.0808C60.3688 29.0808 60.3688 29.0799 60.369 29.0785C60.3688 29.0801 60.3688 29.0808 60.3688 29.0808ZM60.4322 29.0146L60.4304 29.0152C60.4329 29.0146 60.4338 29.0141 60.4338 29.0141C60.4338 29.0141 60.4331 29.0143 60.4322 29.0146ZM41.1546 15.6859C31.7328 12.0689 22.9364 16.341 19.7084 18.9315L19.9452 19.3202C20.5723 19.0492 21.5932 18.8579 22.8422 18.7526C24.0845 18.6479 25.5303 18.63 26.9928 18.6941C28.4552 18.7583 29.9301 18.9043 31.2307 19.1263C32.5354 19.349 33.6491 19.6457 34.3984 20.0044C35.9661 20.7548 42.3182 23.3091 48.3562 25.5728C51.377 26.7053 54.325 27.7672 56.5622 28.4961C57.6801 28.8602 58.6252 29.1427 59.315 29.3092C59.6589 29.3922 59.947 29.4484 60.1647 29.4702C60.2728 29.4809 60.3734 29.4842 60.4592 29.4745C60.5319 29.4665 60.6532 29.4436 60.7353 29.3482C60.8534 29.2113 60.8402 29.0366 60.8065 28.9084C60.7708 28.7724 60.6954 28.6204 60.5953 28.4597C60.3937 28.1357 60.0595 27.7262 59.613 27.254C58.7172 26.3073 57.3415 25.081 55.5834 23.7431C52.0664 21.0668 47.0024 17.9308 41.1546 15.6859Z"/>
</mask>
<path fill-rule="evenodd" clip-rule="evenodd" d="M55.3818 3.13337C55.0792 3.24158 54.8276 3.33153 54.6331 3.3926C53.5044 3.74702 52.3208 3.8045 51.1153 3.86157L51.0892 3.86281C49.8837 3.91986 48.647 3.9784 47.3569 4.31301C46.7037 4.48241 46.3169 4.64046 46.0628 4.79269C45.9207 4.87785 45.8169 4.96294 45.7288 5.05303C47.1597 4.72876 49.1726 4.37609 51.3187 4.19797C53.8949 3.98413 56.6872 4.01965 58.8964 4.67389C61.6442 5.48764 65.3885 7.65546 68.4094 9.88296C69.9221 10.9983 71.2633 12.1357 72.2146 13.1358C72.6897 13.6354 73.0733 14.1067 73.3321 14.5285C73.5853 14.9417 73.7424 15.3443 73.7052 15.6945C73.6877 15.8589 73.6365 16.0147 73.5228 16.1287C73.4043 16.2478 73.2506 16.2891 73.0984 16.2863C72.8173 16.281 72.4711 16.1236 72.1042 15.9071C71.3814 15.481 70.4069 14.7179 69.3139 13.8619L69.3137 13.8618L69.1818 13.7584C68.0277 12.8549 66.7375 11.8503 65.4349 10.9928C64.1295 10.1336 62.8287 9.43375 61.655 9.12815C60.4195 8.80645 59.2182 8.36574 57.9886 7.91479C54.3199 6.56899 50.4017 5.13173 44.5839 6.49266C44.2848 6.56264 44.0085 6.62624 43.7539 6.68375C43.7387 6.69107 43.7232 6.6984 43.7078 6.70574C43.0827 7.0016 42.2082 7.27827 41.2418 7.54714C40.606 7.72406 39.9214 7.89993 39.2337 8.07662L39.2335 8.07669C38.8748 8.16887 38.515 8.26125 38.161 8.35416C37.1236 8.62631 36.1307 8.90353 35.3198 9.19703C34.9146 9.34371 34.5594 9.49279 34.2693 9.64514C33.9768 9.79874 33.7635 9.94897 33.6306 10.0931L33.6226 10.1017C35.7197 9.44859 38.724 8.76639 41.8712 8.54578C45.5141 8.29046 49.3885 8.65055 52.2641 10.4315C53.7118 11.3281 55.1772 12.1903 56.5908 13.022C58.5922 14.1995 60.4899 15.3161 62.087 16.3831C63.454 17.2962 64.6198 18.1849 65.4605 19.0609C66.2982 19.9338 66.839 20.8208 66.9022 21.731C66.9193 21.9766 66.8678 22.2035 66.7018 22.3639C66.5399 22.5203 66.3143 22.5687 66.0858 22.5659C65.6337 22.5603 65.008 22.3522 64.2877 22.0313C62.8315 21.3827 60.8476 20.2064 58.7811 18.9322C58.1259 18.5283 57.4623 18.1144 56.8034 17.7033C55.3765 16.8133 53.9715 15.9369 52.7223 15.2053C51.8099 14.6708 50.9866 14.2171 50.3039 13.8941C49.6102 13.5657 49.0963 13.3896 48.7886 13.3774C48.0264 13.3471 47.0095 13.0098 45.8241 12.6056C45.753 12.5815 45.6813 12.557 45.6089 12.5323C44.4566 12.1389 43.1249 11.6842 41.6387 11.3365C38.4843 10.5986 34.5965 10.233 30.3902 12.0979C29.6942 12.4508 28.9444 12.8106 28.1953 13.1557C27.0103 13.7017 25.8246 14.212 24.8548 14.6006C23.8956 14.9849 23.1224 15.2605 22.7774 15.3229C22.6517 15.3456 22.4626 15.4161 22.2133 15.5386C21.9682 15.659 21.6799 15.8221 21.3597 16.018C20.7197 16.4097 19.9645 16.9256 19.1951 17.476C17.657 18.5764 16.0747 19.8063 15.2677 20.4367C14.8366 20.7735 14.3567 20.9911 13.8317 21.1875C13.6076 21.2714 13.3836 21.3487 13.1512 21.4289C12.8201 21.5432 12.4719 21.6634 12.0821 21.8167C10.7951 22.3229 9.20614 23.1391 7.21124 25.009C4.00881 28.0109 1.01412 32.5863 1.51686 38.1208C1.94234 42.8048 5.68827 46.1057 10.1516 48.1299C14.612 50.1528 19.7105 50.8617 22.7016 50.4112C24.581 50.1282 27.5036 49.2606 30.8587 48.0981C34.2086 46.9371 37.9742 45.4878 41.5324 44.0483C45.0906 42.609 48.4395 41.1805 50.9559 40.062C52.2145 39.5027 53.2634 39.0214 54.0261 38.6552C54.4076 38.472 54.7157 38.3186 54.9417 38.199C55.1784 38.0738 55.3008 37.9981 55.3343 37.9687C55.4611 37.8584 55.8652 37.5668 56.4591 37.1497C57.0596 36.728 57.8685 36.1685 58.8182 35.5164C60.718 34.212 63.1835 32.5349 65.6771 30.8439C68.4744 28.9469 71.3069 27.0328 73.4181 25.6061C75.0724 24.4881 76.2842 23.6692 76.6892 23.3922C77.1041 23.1087 77.7169 22.3745 78.2718 21.2816C78.8225 20.1972 79.3036 18.7837 79.4734 17.1658C79.8122 13.9389 78.9143 9.88184 74.8153 5.9764C67.342 -1.14387 58.5551 1.99857 55.3818 3.13337ZM41.1071 7.10843C40.4784 7.2832 39.8059 7.45599 39.1248 7.63092C38.765 7.7234 38.4027 7.81647 38.0434 7.91075C37.0051 8.18315 35.9944 8.46484 35.1621 8.76609C34.7455 8.91678 34.3691 9.07401 34.0539 9.23965C33.7409 9.40399 33.475 9.58336 33.2907 9.78319C33.1519 9.93377 32.9046 10.1273 32.5603 10.3543C32.2194 10.579 31.7964 10.8283 31.3167 11.0917C30.3573 11.6184 29.1806 12.1963 28.0013 12.7396C26.8226 13.2827 25.6442 13.7899 24.6825 14.1752C23.7101 14.5648 22.9841 14.8194 22.6949 14.8717C22.5035 14.9063 22.2673 15.0005 22.009 15.1275C21.7464 15.2565 21.4447 15.4275 21.1179 15.6275C20.4642 16.0276 19.6987 16.5507 18.9257 17.1038C17.3791 18.2103 15.7902 19.4454 14.9827 20.0761C14.6067 20.3699 14.1784 20.5678 13.6692 20.7583C13.4723 20.832 13.255 20.9072 13.0235 20.9873C12.678 21.107 12.3006 21.2376 11.9124 21.3903C10.5759 21.9159 8.936 22.7621 6.89479 24.6754C3.63945 27.7268 0.536874 32.431 1.05746 38.162C1.50522 43.0912 5.43942 46.4969 9.96013 48.5472C14.4837 50.5985 19.673 51.3313 22.7707 50.8647C24.6968 50.5744 27.6554 49.6937 31.0104 48.531C34.3705 47.3668 38.1437 45.9143 41.7063 44.4731C45.2689 43.0318 48.6228 41.6015 51.1443 40.4807C52.4048 39.9203 53.4585 39.4369 54.2265 39.0682C54.6105 38.8839 54.9247 38.7275 55.1583 38.6039C55.3813 38.4858 55.5564 38.3851 55.638 38.3138C55.742 38.2235 56.12 37.9493 56.7252 37.5244C57.3237 37.1041 58.1312 36.5457 59.0805 35.8939C60.979 34.5901 63.4434 32.9137 65.937 31.2227C68.7316 29.3275 71.5636 27.4139 73.6755 25.9867L73.678 25.9849L73.684 25.9808C75.3358 24.8646 76.5457 24.0469 76.9505 23.7701C77.4583 23.4231 78.114 22.6096 78.6835 21.4883C79.2571 20.3587 79.7562 18.8916 79.9324 17.2134C80.2855 13.8481 79.3382 9.65052 75.1345 5.6453C67.438 -1.68774 58.3604 1.57434 55.2171 2.70393C54.9217 2.81007 54.6788 2.89738 54.4943 2.9553C53.432 3.28879 52.3093 3.34593 51.0931 3.40351L51.0505 3.40553C49.8549 3.4621 48.5774 3.52254 47.2406 3.86925C46.5676 4.04382 46.1326 4.21537 45.8248 4.39991C45.5097 4.58867 46.7025 3.47367 45.1843 4.98317C43.666 6.49266 41.7358 6.93366 41.1071 7.10843ZM44.9476 5.94155C50.6598 4.73009 54.6313 6.18822 58.226 7.50802H58.2262C59.4333 7.95125 60.598 8.37888 61.772 8.68453C63.0199 9.00946 64.3714 9.74275 65.6895 10.6104C67.0104 11.4798 68.3146 12.4959 69.4671 13.3981L69.5776 13.4846C70.6899 14.3556 71.6438 15.1025 72.3394 15.5127C72.7075 15.7298 72.9596 15.825 73.1072 15.8278C73.1695 15.8289 73.1879 15.8132 73.1951 15.8061C73.2071 15.7939 73.235 15.7544 73.2465 15.6465C73.267 15.4522 73.1789 15.1598 72.9381 14.7673C72.7027 14.3834 72.3429 13.9384 71.8793 13.4509C70.9531 12.477 69.6348 11.3573 68.1347 10.2513C65.1305 8.0362 61.4369 5.90475 58.7647 5.11341C56.638 4.48363 53.9143 4.44272 51.357 4.65498C48.9245 4.85687 46.665 5.28581 45.2537 5.63723C45.1787 5.72287 45.0923 5.81289 44.988 5.90603C44.9749 5.91784 44.9615 5.92967 44.9476 5.94155ZM32.388 11.0059C32.5384 10.9147 32.6615 10.7902 32.8096 10.7402C34.8445 10.0528 38.3015 9.25575 41.9037 9.00325C45.5125 8.75031 49.2681 9.11634 52.0201 10.8207C53.4903 11.7312 54.9627 12.5973 56.377 13.4292L56.3772 13.4294C58.3653 14.5987 60.2385 15.7006 61.8299 16.7637C63.1874 17.6706 64.3207 18.5375 65.1268 19.3775C65.9361 20.2208 66.3897 21.0104 66.4421 21.7626C66.4538 21.9326 66.4133 22.0031 66.3803 22.0349C66.3431 22.0708 66.2624 22.1095 66.0913 22.1074C65.744 22.1031 65.1955 21.9333 64.4762 21.6128C63.0529 20.9788 61.0946 19.8192 59.0242 18.5425C58.374 18.1416 57.7133 17.7294 57.0555 17.3193C55.6258 16.4274 54.2113 15.5451 52.9564 14.8102C52.0401 14.2734 51.2031 13.8117 50.5022 13.48C49.8127 13.1537 49.2204 12.9356 48.8071 12.9192C48.1279 12.8922 47.1843 12.5846 45.9735 12.1718C45.9018 12.1473 45.8289 12.1225 45.7553 12.0974C44.6054 11.7047 43.2539 11.2432 41.7444 10.8901C39.0646 10.2633 35.8784 9.97562 32.388 11.0059ZM28.544 25.7476C17.9048 22.1913 13.1502 25.9647 12.1048 28.1508L12.1046 28.1513C12.1031 28.154 12.0965 28.1669 12.1132 28.2074C12.1331 28.2558 12.1803 28.3262 12.2722 28.4175C12.4555 28.5998 12.7678 28.8183 13.2062 29.0675C14.0786 29.5633 15.393 30.148 17.0098 30.7804C20.2401 32.044 24.6426 33.4847 29.0429 34.7685C33.4429 36.0525 37.8335 37.1779 41.0393 37.8126C42.645 38.1304 43.9416 38.3228 44.791 38.3533C45.2235 38.3689 45.5074 38.3407 45.6559 38.2859C45.6861 38.2746 45.7044 38.2648 45.7147 38.2581C45.7129 38.2533 45.7104 38.2476 45.7071 38.2405C44.4303 35.5898 39.194 29.3074 28.544 25.7476ZM45.7187 38.2735C45.7187 38.2735 45.7187 38.2728 45.7187 38.2714C45.7189 38.2728 45.7187 38.2735 45.7187 38.2735ZM11.6882 27.9538C12.8722 25.4779 17.9272 21.715 28.6909 25.3128C39.4438 28.907 44.786 35.2663 46.123 38.0423C46.1829 38.1668 46.2088 38.3175 46.1347 38.462C46.066 38.5959 45.9373 38.6713 45.8162 38.7158C45.5752 38.8047 45.2113 38.8272 44.7744 38.8116C43.8858 38.7798 42.5585 38.581 40.9491 38.2625C37.7249 37.6239 33.32 36.4946 28.9128 35.2085C24.5056 33.9226 20.0888 32.4778 16.8409 31.2073C15.2186 30.5726 13.8793 29.9781 12.9773 29.4656C12.5286 29.2106 12.1735 28.9678 11.9461 28.7419C11.8327 28.6291 11.7387 28.5087 11.6862 28.3808C11.6312 28.2471 11.6195 28.0976 11.6882 27.9538ZM22.8032 18.2957C22.1609 18.3498 21.5644 18.4273 21.0412 18.5302C24.7957 16.033 32.6509 12.9129 40.9886 16.1137C46.7881 18.3401 51.8143 21.4524 55.3029 24.1072C57.0474 25.4348 58.4031 26.6448 59.277 27.5682C59.7149 28.0313 60.0251 28.4152 60.2032 28.7011C60.2918 28.8435 60.3402 28.9497 60.3596 29.0217C60.322 29.0221 60.2731 29.0201 60.2108 29.0139C60.0249 28.9953 59.7611 28.9451 59.4239 28.8637C58.752 28.7016 57.8205 28.4234 56.7059 28.0602C54.4782 27.3345 51.5378 26.2754 48.519 25.1436C42.4776 22.8788 36.1448 20.3313 34.5986 19.5912C33.7914 19.2048 32.6276 18.8995 31.3086 18.6744C29.9859 18.4485 28.4912 18.3008 27.0131 18.236C25.5351 18.1712 24.069 18.189 22.8032 18.2957ZM60.3688 29.0808C60.3688 29.0808 60.3688 29.0799 60.369 29.0785C60.3688 29.0801 60.3688 29.0808 60.3688 29.0808ZM60.4322 29.0146L60.4304 29.0152C60.4329 29.0146 60.4338 29.0141 60.4338 29.0141C60.4338 29.0141 60.4331 29.0143 60.4322 29.0146ZM41.1546 15.6859C31.7328 12.0689 22.9364 16.341 19.7084 18.9315L19.9452 19.3202C20.5723 19.0492 21.5932 18.8579 22.8422 18.7526C24.0845 18.6479 25.5303 18.63 26.9928 18.6941C28.4552 18.7583 29.9301 18.9043 31.2307 19.1263C32.5354 19.349 33.6491 19.6457 34.3984 20.0044C35.9661 20.7548 42.3182 23.3091 48.3562 25.5728C51.377 26.7053 54.325 27.7672 56.5622 28.4961C57.6801 28.8602 58.6252 29.1427 59.315 29.3092C59.6589 29.3922 59.947 29.4484 60.1647 29.4702C60.2728 29.4809 60.3734 29.4842 60.4592 29.4745C60.5319 29.4665 60.6532 29.4436 60.7353 29.3482C60.8534 29.2113 60.8402 29.0366 60.8065 28.9084C60.7708 28.7724 60.6954 28.6204 60.5953 28.4597C60.3937 28.1357 60.0595 27.7262 59.613 27.254C58.7172 26.3073 57.3415 25.081 55.5834 23.7431C52.0664 21.0668 47.0024 17.9308 41.1546 15.6859Z" fill="white"/>
<path fill-rule="evenodd" clip-rule="evenodd" d="M55.3818 3.13337C55.0792 3.24158 54.8276 3.33153 54.6331 3.3926C53.5044 3.74702 52.3208 3.8045 51.1153 3.86157L51.0892 3.86281C49.8837 3.91986 48.647 3.9784 47.3569 4.31301C46.7037 4.48241 46.3169 4.64046 46.0628 4.79269C45.9207 4.87785 45.8169 4.96294 45.7288 5.05303C47.1597 4.72876 49.1726 4.37609 51.3187 4.19797C53.8949 3.98413 56.6872 4.01965 58.8964 4.67389C61.6442 5.48764 65.3885 7.65546 68.4094 9.88296C69.9221 10.9983 71.2633 12.1357 72.2146 13.1358C72.6897 13.6354 73.0733 14.1067 73.3321 14.5285C73.5853 14.9417 73.7424 15.3443 73.7052 15.6945C73.6877 15.8589 73.6365 16.0147 73.5228 16.1287C73.4043 16.2478 73.2506 16.2891 73.0984 16.2863C72.8173 16.281 72.4711 16.1236 72.1042 15.9071C71.3814 15.481 70.4069 14.7179 69.3139 13.8619L69.3137 13.8618L69.1818 13.7584C68.0277 12.8549 66.7375 11.8503 65.4349 10.9928C64.1295 10.1336 62.8287 9.43375 61.655 9.12815C60.4195 8.80645 59.2182 8.36574 57.9886 7.91479C54.3199 6.56899 50.4017 5.13173 44.5839 6.49266C44.2848 6.56264 44.0085 6.62624 43.7539 6.68375C43.7387 6.69107 43.7232 6.6984 43.7078 6.70574C43.0827 7.0016 42.2082 7.27827 41.2418 7.54714C40.606 7.72406 39.9214 7.89993 39.2337 8.07662L39.2335 8.07669C38.8748 8.16887 38.515 8.26125 38.161 8.35416C37.1236 8.62631 36.1307 8.90353 35.3198 9.19703C34.9146 9.34371 34.5594 9.49279 34.2693 9.64514C33.9768 9.79874 33.7635 9.94897 33.6306 10.0931L33.6226 10.1017C35.7197 9.44859 38.724 8.76639 41.8712 8.54578C45.5141 8.29046 49.3885 8.65055 52.2641 10.4315C53.7118 11.3281 55.1772 12.1903 56.5908 13.022C58.5922 14.1995 60.4899 15.3161 62.087 16.3831C63.454 17.2962 64.6198 18.1849 65.4605 19.0609C66.2982 19.9338 66.839 20.8208 66.9022 21.731C66.9193 21.9766 66.8678 22.2035 66.7018 22.3639C66.5399 22.5203 66.3143 22.5687 66.0858 22.5659C65.6337 22.5603 65.008 22.3522 64.2877 22.0313C62.8315 21.3827 60.8476 20.2064 58.7811 18.9322C58.1259 18.5283 57.4623 18.1144 56.8034 17.7033C55.3765 16.8133 53.9715 15.9369 52.7223 15.2053C51.8099 14.6708 50.9866 14.2171 50.3039 13.8941C49.6102 13.5657 49.0963 13.3896 48.7886 13.3774C48.0264 13.3471 47.0095 13.0098 45.8241 12.6056C45.753 12.5815 45.6813 12.557 45.6089 12.5323C44.4566 12.1389 43.1249 11.6842 41.6387 11.3365C38.4843 10.5986 34.5965 10.233 30.3902 12.0979C29.6942 12.4508 28.9444 12.8106 28.1953 13.1557C27.0103 13.7017 25.8246 14.212 24.8548 14.6006C23.8956 14.9849 23.1224 15.2605 22.7774 15.3229C22.6517 15.3456 22.4626 15.4161 22.2133 15.5386C21.9682 15.659 21.6799 15.8221 21.3597 16.018C20.7197 16.4097 19.9645 16.9256 19.1951 17.476C17.657 18.5764 16.0747 19.8063 15.2677 20.4367C14.8366 20.7735 14.3567 20.9911 13.8317 21.1875C13.6076 21.2714 13.3836 21.3487 13.1512 21.4289C12.8201 21.5432 12.4719 21.6634 12.0821 21.8167C10.7951 22.3229 9.20614 23.1391 7.21124 25.009C4.00881 28.0109 1.01412 32.5863 1.51686 38.1208C1.94234 42.8048 5.68827 46.1057 10.1516 48.1299C14.612 50.1528 19.7105 50.8617 22.7016 50.4112C24.581 50.1282 27.5036 49.2606 30.8587 48.0981C34.2086 46.9371 37.9742 45.4878 41.5324 44.0483C45.0906 42.609 48.4395 41.1805 50.9559 40.062C52.2145 39.5027 53.2634 39.0214 54.0261 38.6552C54.4076 38.472 54.7157 38.3186 54.9417 38.199C55.1784 38.0738 55.3008 37.9981 55.3343 37.9687C55.4611 37.8584 55.8652 37.5668 56.4591 37.1497C57.0596 36.728 57.8685 36.1685 58.8182 35.5164C60.718 34.212 63.1835 32.5349 65.6771 30.8439C68.4744 28.9469 71.3069 27.0328 73.4181 25.6061C75.0724 24.4881 76.2842 23.6692 76.6892 23.3922C77.1041 23.1087 77.7169 22.3745 78.2718 21.2816C78.8225 20.1972 79.3036 18.7837 79.4734 17.1658C79.8122 13.9389 78.9143 9.88184 74.8153 5.9764C67.342 -1.14387 58.5551 1.99857 55.3818 3.13337ZM41.1071 7.10843C40.4784 7.2832 39.8059 7.45599 39.1248 7.63092C38.765 7.7234 38.4027 7.81647 38.0434 7.91075C37.0051 8.18315 35.9944 8.46484 35.1621 8.76609C34.7455 8.91678 34.3691 9.07401 34.0539 9.23965C33.7409 9.40399 33.475 9.58336 33.2907 9.78319C33.1519 9.93377 32.9046 10.1273 32.5603 10.3543C32.2194 10.579 31.7964 10.8283 31.3167 11.0917C30.3573 11.6184 29.1806 12.1963 28.0013 12.7396C26.8226 13.2827 25.6442 13.7899 24.6825 14.1752C23.7101 14.5648 22.9841 14.8194 22.6949 14.8717C22.5035 14.9063 22.2673 15.0005 22.009 15.1275C21.7464 15.2565 21.4447 15.4275 21.1179 15.6275C20.4642 16.0276 19.6987 16.5507 18.9257 17.1038C17.3791 18.2103 15.7902 19.4454 14.9827 20.0761C14.6067 20.3699 14.1784 20.5678 13.6692 20.7583C13.4723 20.832 13.255 20.9072 13.0235 20.9873C12.678 21.107 12.3006 21.2376 11.9124 21.3903C10.5759 21.9159 8.936 22.7621 6.89479 24.6754C3.63945 27.7268 0.536874 32.431 1.05746 38.162C1.50522 43.0912 5.43942 46.4969 9.96013 48.5472C14.4837 50.5985 19.673 51.3313 22.7707 50.8647C24.6968 50.5744 27.6554 49.6937 31.0104 48.531C34.3705 47.3668 38.1437 45.9143 41.7063 44.4731C45.2689 43.0318 48.6228 41.6015 51.1443 40.4807C52.4048 39.9203 53.4585 39.4369 54.2265 39.0682C54.6105 38.8839 54.9247 38.7275 55.1583 38.6039C55.3813 38.4858 55.5564 38.3851 55.638 38.3138C55.742 38.2235 56.12 37.9493 56.7252 37.5244C57.3237 37.1041 58.1312 36.5457 59.0805 35.8939C60.979 34.5901 63.4434 32.9137 65.937 31.2227C68.7316 29.3275 71.5636 27.4139 73.6755 25.9867L73.678 25.9849L73.684 25.9808C75.3358 24.8646 76.5457 24.0469 76.9505 23.7701C77.4583 23.4231 78.114 22.6096 78.6835 21.4883C79.2571 20.3587 79.7562 18.8916 79.9324 17.2134C80.2855 13.8481 79.3382 9.65052 75.1345 5.6453C67.438 -1.68774 58.3604 1.57434 55.2171 2.70393C54.9217 2.81007 54.6788 2.89738 54.4943 2.9553C53.432 3.28879 52.3093 3.34593 51.0931 3.40351L51.0505 3.40553C49.8549 3.4621 48.5774 3.52254 47.2406 3.86925C46.5676 4.04382 46.1326 4.21537 45.8248 4.39991C45.5097 4.58867 46.7025 3.47367 45.1843 4.98317C43.666 6.49266 41.7358 6.93366 41.1071 7.10843ZM44.9476 5.94155C50.6598 4.73009 54.6313 6.18822 58.226 7.50802H58.2262C59.4333 7.95125 60.598 8.37888 61.772 8.68453C63.0199 9.00946 64.3714 9.74275 65.6895 10.6104C67.0104 11.4798 68.3146 12.4959 69.4671 13.3981L69.5776 13.4846C70.6899 14.3556 71.6438 15.1025 72.3394 15.5127C72.7075 15.7298 72.9596 15.825 73.1072 15.8278C73.1695 15.8289 73.1879 15.8132 73.1951 15.8061C73.2071 15.7939 73.235 15.7544 73.2465 15.6465C73.267 15.4522 73.1789 15.1598 72.9381 14.7673C72.7027 14.3834 72.3429 13.9384 71.8793 13.4509C70.9531 12.477 69.6348 11.3573 68.1347 10.2513C65.1305 8.0362 61.4369 5.90475 58.7647 5.11341C56.638 4.48363 53.9143 4.44272 51.357 4.65498C48.9245 4.85687 46.665 5.28581 45.2537 5.63723C45.1787 5.72287 45.0923 5.81289 44.988 5.90603C44.9749 5.91784 44.9615 5.92967 44.9476 5.94155ZM32.388 11.0059C32.5384 10.9147 32.6615 10.7902 32.8096 10.7402C34.8445 10.0528 38.3015 9.25575 41.9037 9.00325C45.5125 8.75031 49.2681 9.11634 52.0201 10.8207C53.4903 11.7312 54.9627 12.5973 56.377 13.4292L56.3772 13.4294C58.3653 14.5987 60.2385 15.7006 61.8299 16.7637C63.1874 17.6706 64.3207 18.5375 65.1268 19.3775C65.9361 20.2208 66.3897 21.0104 66.4421 21.7626C66.4538 21.9326 66.4133 22.0031 66.3803 22.0349C66.3431 22.0708 66.2624 22.1095 66.0913 22.1074C65.744 22.1031 65.1955 21.9333 64.4762 21.6128C63.0529 20.9788 61.0946 19.8192 59.0242 18.5425C58.374 18.1416 57.7133 17.7294 57.0555 17.3193C55.6258 16.4274 54.2113 15.5451 52.9564 14.8102C52.0401 14.2734 51.2031 13.8117 50.5022 13.48C49.8127 13.1537 49.2204 12.9356 48.8071 12.9192C48.1279 12.8922 47.1843 12.5846 45.9735 12.1718C45.9018 12.1473 45.8289 12.1225 45.7553 12.0974C44.6054 11.7047 43.2539 11.2432 41.7444 10.8901C39.0646 10.2633 35.8784 9.97562 32.388 11.0059ZM28.544 25.7476C17.9048 22.1913 13.1502 25.9647 12.1048 28.1508L12.1046 28.1513C12.1031 28.154 12.0965 28.1669 12.1132 28.2074C12.1331 28.2558 12.1803 28.3262 12.2722 28.4175C12.4555 28.5998 12.7678 28.8183 13.2062 29.0675C14.0786 29.5633 15.393 30.148 17.0098 30.7804C20.2401 32.044 24.6426 33.4847 29.0429 34.7685C33.4429 36.0525 37.8335 37.1779 41.0393 37.8126C42.645 38.1304 43.9416 38.3228 44.791 38.3533C45.2235 38.3689 45.5074 38.3407 45.6559 38.2859C45.6861 38.2746 45.7044 38.2648 45.7147 38.2581C45.7129 38.2533 45.7104 38.2476 45.7071 38.2405C44.4303 35.5898 39.194 29.3074 28.544 25.7476ZM45.7187 38.2735C45.7187 38.2735 45.7187 38.2728 45.7187 38.2714C45.7189 38.2728 45.7187 38.2735 45.7187 38.2735ZM11.6882 27.9538C12.8722 25.4779 17.9272 21.715 28.6909 25.3128C39.4438 28.907 44.786 35.2663 46.123 38.0423C46.1829 38.1668 46.2088 38.3175 46.1347 38.462C46.066 38.5959 45.9373 38.6713 45.8162 38.7158C45.5752 38.8047 45.2113 38.8272 44.7744 38.8116C43.8858 38.7798 42.5585 38.581 40.9491 38.2625C37.7249 37.6239 33.32 36.4946 28.9128 35.2085C24.5056 33.9226 20.0888 32.4778 16.8409 31.2073C15.2186 30.5726 13.8793 29.9781 12.9773 29.4656C12.5286 29.2106 12.1735 28.9678 11.9461 28.7419C11.8327 28.6291 11.7387 28.5087 11.6862 28.3808C11.6312 28.2471 11.6195 28.0976 11.6882 27.9538ZM22.8032 18.2957C22.1609 18.3498 21.5644 18.4273 21.0412 18.5302C24.7957 16.033 32.6509 12.9129 40.9886 16.1137C46.7881 18.3401 51.8143 21.4524 55.3029 24.1072C57.0474 25.4348 58.4031 26.6448 59.277 27.5682C59.7149 28.0313 60.0251 28.4152 60.2032 28.7011C60.2918 28.8435 60.3402 28.9497 60.3596 29.0217C60.322 29.0221 60.2731 29.0201 60.2108 29.0139C60.0249 28.9953 59.7611 28.9451 59.4239 28.8637C58.752 28.7016 57.8205 28.4234 56.7059 28.0602C54.4782 27.3345 51.5378 26.2754 48.519 25.1436C42.4776 22.8788 36.1448 20.3313 34.5986 19.5912C33.7914 19.2048 32.6276 18.8995 31.3086 18.6744C29.9859 18.4485 28.4912 18.3008 27.0131 18.236C25.5351 18.1712 24.069 18.189 22.8032 18.2957ZM60.3688 29.0808C60.3688 29.0808 60.3688 29.0799 60.369 29.0785C60.3688 29.0801 60.3688 29.0808 60.3688 29.0808ZM60.4322 29.0146L60.4304 29.0152C60.4329 29.0146 60.4338 29.0141 60.4338 29.0141C60.4338 29.0141 60.4331 29.0143 60.4322 29.0146ZM41.1546 15.6859C31.7328 12.0689 22.9364 16.341 19.7084 18.9315L19.9452 19.3202C20.5723 19.0492 21.5932 18.8579 22.8422 18.7526C24.0845 18.6479 25.5303 18.63 26.9928 18.6941C28.4552 18.7583 29.9301 18.9043 31.2307 19.1263C32.5354 19.349 33.6491 19.6457 34.3984 20.0044C35.9661 20.7548 42.3182 23.3091 48.3562 25.5728C51.377 26.7053 54.325 27.7672 56.5622 28.4961C57.6801 28.8602 58.6252 29.1427 59.315 29.3092C59.6589 29.3922 59.947 29.4484 60.1647 29.4702C60.2728 29.4809 60.3734 29.4842 60.4592 29.4745C60.5319 29.4665 60.6532 29.4436 60.7353 29.3482C60.8534 29.2113 60.8402 29.0366 60.8065 28.9084C60.7708 28.7724 60.6954 28.6204 60.5953 28.4597C60.3937 28.1357 60.0595 27.7262 59.613 27.254C58.7172 26.3073 57.3415 25.081 55.5834 23.7431C52.0664 21.0668 47.0024 17.9308 41.1546 15.6859Z" stroke="white" stroke-width="2" mask="url(#path-1-outside-1_789_192)"/>
</svg>
