<svg width="79" height="50" viewBox="0 0 79 50" fill="none" xmlns="http://www.w3.org/2000/svg">
<path fill-rule="evenodd" clip-rule="evenodd" d="M54.3818 2.13337C54.0792 2.24158 53.8276 2.33153 53.6331 2.3926C52.5044 2.74702 51.3208 2.8045 50.1153 2.86157L50.0892 2.86281C48.8837 2.91986 47.647 2.9784 46.3569 3.31301C45.7037 3.48241 45.3169 3.64046 45.0628 3.79269C44.9207 3.87785 44.8169 3.96294 44.7288 4.05303C46.1597 3.72876 48.1726 3.37609 50.3187 3.19797C52.8949 2.98413 55.6872 3.01965 57.8964 3.67389C60.6442 4.48764 64.3885 6.65546 67.4094 8.88296C68.9221 9.99827 70.2633 11.1357 71.2146 12.1358C71.6897 12.6354 72.0733 13.1067 72.3321 13.5285C72.5853 13.9417 72.7424 14.3443 72.7052 14.6945C72.6877 14.8589 72.6365 15.0147 72.5228 15.1287C72.4043 15.2478 72.2506 15.2891 72.0984 15.2863C71.8173 15.281 71.4711 15.1236 71.1042 14.9071C70.3814 14.481 69.4069 13.7179 68.3139 12.8619L68.3137 12.8618L68.1818 12.7584C67.0277 11.8549 65.7375 10.8503 64.4349 9.99279C63.1295 9.13358 61.8287 8.43375 60.655 8.12815C59.4195 7.80645 58.2182 7.36574 56.9886 6.91479C53.3199 5.56899 49.4017 4.13173 43.5839 5.49266C43.2848 5.56264 43.0085 5.62624 42.7539 5.68375C42.7387 5.69107 42.7232 5.6984 42.7078 5.70574C42.0827 6.0016 41.2082 6.27827 40.2418 6.54714C39.606 6.72406 38.9214 6.89993 38.2337 7.07662L38.2335 7.07669C37.8748 7.16887 37.515 7.26125 37.161 7.35416C36.1236 7.62631 35.1307 7.90353 34.3198 8.19703C33.9146 8.34371 33.5594 8.49279 33.2693 8.64514C32.9768 8.79874 32.7635 8.94897 32.6306 9.09309L32.6226 9.10171C34.7197 8.44859 37.724 7.76639 40.8712 7.54578C44.5141 7.29046 48.3885 7.65055 51.2641 9.43146C52.7118 10.3281 54.1772 11.1903 55.5908 12.022C57.5922 13.1995 59.4899 14.3161 61.087 15.3831C62.454 16.2962 63.6198 17.1849 64.4605 18.0609C65.2982 18.9338 65.839 19.8208 65.9022 20.731C65.9193 20.9766 65.8678 21.2035 65.7018 21.3639C65.5399 21.5203 65.3143 21.5687 65.0858 21.5659C64.6337 21.5603 64.008 21.3522 63.2877 21.0313C61.8315 20.3827 59.8476 19.2064 57.7811 17.9322C57.1259 17.5283 56.4623 17.1144 55.8034 16.7033C54.3765 15.8133 52.9715 14.9369 51.7223 14.2053C50.8099 13.6708 49.9866 13.2171 49.3039 12.8941C48.6102 12.5657 48.0963 12.3896 47.7886 12.3774C47.0264 12.3471 46.0095 12.0098 44.8241 11.6056C44.753 11.5815 44.6813 11.557 44.6089 11.5323C43.4566 11.1389 42.1249 10.6842 40.6387 10.3365C37.4843 9.59859 33.5965 9.233 29.3902 11.0979C28.6942 11.4508 27.9444 11.8106 27.1953 12.1557C26.0103 12.7017 24.8246 13.212 23.8548 13.6006C22.8956 13.9849 22.1224 14.2605 21.7774 14.3229C21.6517 14.3456 21.4626 14.4161 21.2133 14.5386C20.9682 14.659 20.6799 14.8221 20.3597 15.018C19.7197 15.4097 18.9645 15.9256 18.1951 16.476C16.657 17.5764 15.0747 18.8063 14.2677 19.4367C13.8366 19.7735 13.3567 19.9911 12.8317 20.1875C12.6076 20.2714 12.3836 20.3487 12.1512 20.4289C11.8201 20.5432 11.4719 20.6634 11.0821 20.8167C9.79507 21.3229 8.20614 22.1391 6.21124 24.009C3.00881 27.0109 0.0141222 31.5863 0.516855 37.1208C0.942341 41.8048 4.68827 45.1057 9.15156 47.1299C13.612 49.1528 18.7105 49.8617 21.7016 49.4112C23.581 49.1282 26.5036 48.2606 29.8587 47.0981C33.2086 45.9371 36.9742 44.4878 40.5324 43.0483C44.0906 41.609 47.4395 40.1805 49.9559 39.062C51.2145 38.5027 52.2634 38.0214 53.0261 37.6552C53.4076 37.472 53.7157 37.3186 53.9417 37.199C54.1784 37.0738 54.3008 36.9981 54.3343 36.9687C54.4611 36.8584 54.8652 36.5668 55.4591 36.1497C56.0596 35.728 56.8685 35.1685 57.8182 34.5164C59.718 33.212 62.1835 31.5349 64.6771 29.8439C67.4744 27.9469 70.3069 26.0328 72.4181 24.6061C74.0724 23.4881 75.2842 22.6692 75.6892 22.3922C76.1041 22.1087 76.7169 21.3745 77.2718 20.2816C77.8225 19.1972 78.3036 17.7837 78.4734 16.1658C78.8122 12.9389 77.9143 8.88184 73.8153 4.9764C66.342 -2.14387 57.5551 0.998571 54.3818 2.13337ZM40.1071 6.10843C39.4784 6.2832 38.8059 6.45599 38.1248 6.63092C37.765 6.7234 37.4027 6.81647 37.0434 6.91075C36.0051 7.18315 34.9944 7.46484 34.1621 7.76609C33.7455 7.91678 33.3691 8.07401 33.0539 8.23965C32.7409 8.40399 32.475 8.58336 32.2907 8.78319C32.1519 8.93377 31.9046 9.12727 31.5603 9.35432C31.2194 9.57898 30.7964 9.82827 30.3167 10.0917C29.3573 10.6184 28.1806 11.1963 27.0013 11.7396C25.8226 12.2827 24.6442 12.7899 23.6825 13.1752C22.7101 13.5648 21.9841 13.8194 21.6949 13.8717C21.5035 13.9063 21.2673 14.0005 21.009 14.1275C20.7464 14.2565 20.4447 14.4275 20.1179 14.6275C19.4642 15.0276 18.6987 15.5507 17.9257 16.1038C16.3791 17.2103 14.7902 18.4454 13.9827 19.0761C13.6067 19.3699 13.1784 19.5678 12.6692 19.7583C12.4723 19.832 12.255 19.9072 12.0235 19.9873C11.678 20.107 11.3006 20.2376 10.9124 20.3903C9.57595 20.9159 7.936 21.7621 5.89479 23.6754C2.63945 26.7268 -0.463126 31.431 0.057457 37.162C0.505215 42.0912 4.43942 45.4969 8.96013 47.5472C13.4837 49.5985 18.673 50.3313 21.7707 49.8647C23.6968 49.5744 26.6554 48.6937 30.0104 47.531C33.3705 46.3668 37.1437 44.9143 40.7063 43.4731C44.2689 42.0318 47.6228 40.6015 50.1443 39.4807C51.4048 38.9203 52.4585 38.4369 53.2265 38.0682C53.6105 37.8839 53.9247 37.7275 54.1583 37.6039C54.3813 37.4858 54.5564 37.3851 54.638 37.3138C54.742 37.2235 55.12 36.9493 55.7252 36.5244C56.3237 36.1041 57.1312 35.5457 58.0805 34.8939C59.979 33.5901 62.4434 31.9137 64.937 30.2227C67.7316 28.3275 70.5636 26.4139 72.6755 24.9867L72.678 24.9849L72.684 24.9808C74.3358 23.8646 75.5457 23.0469 75.9505 22.7701C76.4583 22.4231 77.114 21.6096 77.6835 20.4883C78.2571 19.3587 78.7562 17.8916 78.9324 16.2134C79.2855 12.8481 78.3382 8.65052 74.1345 4.6453C66.438 -2.68774 57.3604 0.574343 54.2171 1.70393C53.9217 1.81007 53.6788 1.89738 53.4943 1.9553C52.432 2.28879 51.3093 2.34593 50.0931 2.40351L50.0505 2.40553C48.8549 2.4621 47.5774 2.52254 46.2406 2.86925C45.5676 3.04382 45.1326 3.21537 44.8248 3.39991C44.5097 3.58867 45.7025 2.47367 44.1843 3.98317C42.666 5.49266 40.7358 5.93366 40.1071 6.10843ZM43.9476 4.94155C49.6598 3.73009 53.6313 5.18822 57.226 6.50802H57.2262C58.4333 6.95125 59.598 7.37888 60.772 7.68453C62.0199 8.00946 63.3714 8.74275 64.6895 9.61042C66.0104 10.4798 67.3146 11.4959 68.4671 12.3981L68.5776 12.4846C69.6899 13.3556 70.6438 14.1025 71.3394 14.5127C71.7075 14.7298 71.9596 14.825 72.1072 14.8278C72.1695 14.8289 72.1879 14.8132 72.1951 14.8061C72.2071 14.7939 72.235 14.7544 72.2465 14.6465C72.267 14.4522 72.1789 14.1598 71.9381 13.7673C71.7027 13.3834 71.3429 12.9384 70.8793 12.4509C69.9531 11.477 68.6348 10.3573 67.1347 9.2513C64.1305 7.0362 60.4369 4.90475 57.7647 4.11341C55.638 3.48363 52.9143 3.44272 50.357 3.65498C47.9245 3.85687 45.665 4.28581 44.2537 4.63723C44.1787 4.72287 44.0923 4.81289 43.988 4.90603C43.9749 4.91784 43.9615 4.92967 43.9476 4.94155ZM31.388 10.0059C31.5384 9.91472 31.6615 9.79016 31.8096 9.74018C33.8445 9.05282 37.3015 8.25575 40.9037 8.00325C44.5125 7.75031 48.2681 8.11634 51.0201 9.82071C52.4903 10.7312 53.9627 11.5973 55.377 12.4292L55.3772 12.4294C57.3653 13.5987 59.2385 14.7006 60.8299 15.7637C62.1874 16.6706 63.3207 17.5375 64.1268 18.3775C64.9361 19.2208 65.3897 20.0104 65.4421 20.7626C65.4538 20.9326 65.4133 21.0031 65.3803 21.0349C65.3431 21.0708 65.2624 21.1095 65.0913 21.1074C64.744 21.1031 64.1955 20.9333 63.4762 20.6128C62.0529 19.9788 60.0946 18.8192 58.0242 17.5425C57.374 17.1416 56.7133 16.7294 56.0555 16.3193C54.6258 15.4274 53.2113 14.5451 51.9564 13.8102C51.0401 13.2734 50.2031 12.8117 49.5022 12.48C48.8127 12.1537 48.2204 11.9356 47.8071 11.9192C47.1279 11.8922 46.1843 11.5846 44.9735 11.1718C44.9018 11.1473 44.8289 11.1225 44.7553 11.0974C43.6054 10.7047 42.2539 10.2432 40.7444 9.89009C38.0646 9.26327 34.8784 8.97562 31.388 10.0059ZM27.544 24.7476C16.9048 21.1913 12.1502 24.9647 11.1048 27.1508L11.1046 27.1513C11.1031 27.154 11.0965 27.1669 11.1132 27.2074C11.1331 27.2558 11.1803 27.3262 11.2722 27.4175C11.4555 27.5998 11.7678 27.8183 12.2062 28.0675C13.0786 28.5633 14.393 29.148 16.0098 29.7804C19.2401 31.044 23.6426 32.4847 28.0429 33.7685C32.4429 35.0525 36.8335 36.1779 40.0393 36.8126C41.645 37.1304 42.9416 37.3228 43.791 37.3533C44.2235 37.3689 44.5074 37.3407 44.6559 37.2859C44.6861 37.2746 44.7044 37.2648 44.7147 37.2581C44.7129 37.2533 44.7104 37.2476 44.7071 37.2405C43.4303 34.5898 38.194 28.3074 27.544 24.7476ZM44.7187 37.2735C44.7187 37.2735 44.7187 37.2728 44.7187 37.2714C44.7189 37.2728 44.7187 37.2735 44.7187 37.2735ZM10.6882 26.9538C11.8722 24.4779 16.9272 20.715 27.6909 24.3128C38.4438 27.907 43.786 34.2663 45.123 37.0423C45.1829 37.1668 45.2088 37.3175 45.1347 37.462C45.066 37.5959 44.9373 37.6713 44.8162 37.7158C44.5752 37.8047 44.2113 37.8272 43.7744 37.8116C42.8858 37.7798 41.5585 37.581 39.9491 37.2625C36.7249 36.6239 32.32 35.4946 27.9128 34.2085C23.5056 32.9226 19.0888 31.4778 15.8409 30.2073C14.2186 29.5726 12.8793 28.9781 11.9773 28.4656C11.5286 28.2106 11.1735 27.9678 10.9461 27.7419C10.8327 27.6291 10.7387 27.5087 10.6862 27.3808C10.6312 27.2471 10.6195 27.0976 10.6882 26.9538ZM21.8032 17.2957C21.1609 17.3498 20.5644 17.4273 20.0412 17.5302C23.7957 15.033 31.6509 11.9129 39.9886 15.1137C45.7881 17.3401 50.8143 20.4524 54.3029 23.1072C56.0474 24.4348 57.4031 25.6448 58.277 26.5682C58.7149 27.0313 59.0251 27.4152 59.2032 27.7011C59.2918 27.8435 59.3402 27.9497 59.3596 28.0217C59.322 28.0221 59.2731 28.0201 59.2108 28.0139C59.0249 27.9953 58.7611 27.9451 58.4239 27.8637C57.752 27.7016 56.8205 27.4234 55.7059 27.0602C53.4782 26.3345 50.5378 25.2754 47.519 24.1436C41.4776 21.8788 35.1448 19.3313 33.5986 18.5912C32.7914 18.2048 31.6276 17.8995 30.3086 17.6744C28.9859 17.4485 27.4912 17.3008 26.0131 17.236C24.5351 17.1712 23.069 17.189 21.8032 17.2957ZM59.3688 28.0808C59.3688 28.0808 59.3688 28.0799 59.369 28.0785C59.3688 28.0801 59.3688 28.0808 59.3688 28.0808ZM59.4322 28.0146L59.4304 28.0152C59.4329 28.0146 59.4338 28.0141 59.4338 28.0141C59.4338 28.0141 59.4331 28.0143 59.4322 28.0146ZM40.1546 14.6859C30.7328 11.0689 21.9364 15.341 18.7084 17.9315L18.9452 18.3202C19.5723 18.0492 20.5932 17.8579 21.8422 17.7526C23.0845 17.6479 24.5303 17.63 25.9928 17.6941C27.4552 17.7583 28.9301 17.9043 30.2307 18.1263C31.5354 18.349 32.6491 18.6457 33.3984 19.0044C34.9661 19.7548 41.3182 22.3091 47.3562 24.5728C50.377 25.7053 53.325 26.7672 55.5622 27.4961C56.6801 27.8602 57.6252 28.1427 58.315 28.3092C58.6589 28.3922 58.947 28.4484 59.1647 28.4702C59.2728 28.4809 59.3734 28.4842 59.4592 28.4745C59.5319 28.4665 59.6532 28.4436 59.7353 28.3482C59.8534 28.2113 59.8402 28.0366 59.8065 27.9084C59.7708 27.7724 59.6954 27.6204 59.5953 27.4597C59.3937 27.1357 59.0595 26.7262 58.613 26.254C57.7172 25.3073 56.3415 24.081 54.5834 22.7431C51.0664 20.0668 46.0024 16.9308 40.1546 14.6859Z" fill="white"/>
</svg>
