<svg width="344" height="219" viewBox="0 0 344 219" fill="none" xmlns="http://www.w3.org/2000/svg">
<path fill-rule="evenodd" clip-rule="evenodd" d="M236.547 9.82285C235.235 10.2948 234.144 10.6871 233.301 10.9534C228.407 12.4991 223.275 12.7498 218.048 12.9987L217.935 13.0041C212.708 13.2529 207.346 13.5082 201.752 14.9675C198.92 15.7063 197.243 16.3956 196.141 17.0595C195.525 17.4309 195.075 17.802 194.693 18.1949C200.897 16.7807 209.625 15.2426 218.93 14.4658C230.1 13.5332 242.207 13.6881 251.786 16.5414C263.7 20.0903 279.935 29.5446 293.033 39.2592C299.592 44.1233 305.407 49.0839 309.532 53.4457C311.592 55.6245 313.255 57.6796 314.377 59.5194C315.475 61.3212 316.156 63.077 315.995 64.6046C315.919 65.3215 315.697 66.0008 315.204 66.4983C314.69 67.0174 314.024 67.1978 313.364 67.1853C312.145 67.1622 310.644 66.4758 309.053 65.5319C305.919 63.6734 301.694 60.3455 296.955 56.6122L296.954 56.6117L296.382 56.1606C291.378 52.2203 285.784 47.839 280.136 44.0994C274.476 40.3522 268.836 37.3001 263.747 35.9673C258.39 34.5643 253.181 32.6423 247.85 30.6756C231.943 24.8063 214.954 18.5381 189.729 24.4734C188.432 24.7786 187.234 25.056 186.13 25.3068C186.064 25.3387 185.997 25.3707 185.93 25.4027C183.22 26.693 179.428 27.8996 175.238 29.0722C172.481 29.8438 169.513 30.6108 166.531 31.3814L166.53 31.3817C164.975 31.7837 163.415 32.1866 161.88 32.5918C157.382 33.7787 153.077 34.9877 149.561 36.2677C147.804 36.9074 146.264 37.5576 145.006 38.222C143.738 38.8919 142.813 39.5471 142.237 40.1756L142.202 40.2132C151.295 37.3648 164.321 34.3896 177.967 33.4275C193.762 32.314 210.561 33.8844 223.029 41.6513C229.306 45.5618 235.66 49.3218 241.789 52.949C250.467 58.0846 258.695 62.9541 265.62 67.6075C271.547 71.5897 276.602 75.4655 280.247 79.2862C283.879 83.0929 286.224 86.9615 286.498 90.9311C286.572 92.0022 286.349 92.9914 285.629 93.6911C284.927 94.3732 283.949 94.5844 282.958 94.5721C280.998 94.5478 278.285 93.64 275.162 92.2406C268.848 89.4119 260.246 84.2819 251.286 78.7248C248.445 76.9633 245.568 75.158 242.711 73.3654C236.524 69.484 230.432 65.6618 225.016 62.4709C221.06 60.1401 217.49 58.1614 214.53 56.7525C211.522 55.3202 209.294 54.5525 207.96 54.4991C204.655 54.367 200.246 52.8958 195.106 51.1334C194.798 51.0279 194.487 50.9211 194.173 50.8134C189.177 49.0977 183.403 47.1147 176.959 45.5984C163.282 42.3802 146.425 40.7858 128.187 48.9189C125.169 50.4579 121.918 52.0273 118.67 53.5322C113.532 55.9135 108.391 58.1391 104.186 59.8336C100.027 61.5097 96.6748 62.7117 95.1788 62.9837C94.6336 63.0829 93.8139 63.3905 92.7331 63.9247C91.6704 64.4498 90.42 65.1611 89.032 66.0155C86.257 67.7238 82.9823 69.9736 79.6466 72.374C72.9776 77.1732 66.1169 82.5368 62.6178 85.2862C60.7485 86.7549 58.6678 87.7041 56.3912 88.5608C55.4196 88.9264 54.4485 89.2636 53.4409 89.6134C52.0051 90.112 50.4954 90.6361 48.8053 91.3047C43.225 93.5124 36.3356 97.0721 27.686 105.227C13.8007 118.319 0.816116 138.273 2.9959 162.41C4.84075 182.838 21.0826 197.234 40.4348 206.062C59.7748 214.884 81.8813 217.976 94.8501 216.011C102.999 214.777 115.671 210.993 130.218 205.923C144.743 200.86 161.07 194.539 176.498 188.261C191.926 181.984 206.446 175.754 217.357 170.876C222.814 168.437 227.362 166.338 230.669 164.741C232.323 163.942 233.659 163.273 234.639 162.751C235.665 162.205 236.196 161.875 236.341 161.747C236.891 161.266 238.643 159.994 241.218 158.175C243.822 156.336 247.329 153.896 251.447 151.052C259.684 145.363 270.374 138.049 281.186 130.674C293.315 122.401 305.596 114.053 314.75 107.831C321.923 102.955 327.177 99.3836 328.933 98.1759C330.732 96.9394 333.389 93.7372 335.795 88.9712C338.183 84.2415 340.269 78.0771 341.005 71.0211C342.474 56.9478 338.581 39.2543 320.808 22.2219C288.405 -8.83105 250.306 4.87377 236.547 9.82285ZM174.654 27.1589C171.928 27.9211 169.012 28.6747 166.059 29.4376C164.499 29.8409 162.928 30.2468 161.37 30.658C156.868 31.846 152.486 33.0745 148.877 34.3883C147.071 35.0455 145.439 35.7312 144.072 36.4536C142.715 37.1703 141.562 37.9526 140.763 38.8241C140.161 39.4808 139.089 40.3247 137.596 41.3149C136.118 42.2947 134.284 43.3819 132.204 44.5307C128.044 46.8278 122.942 49.3482 117.829 51.7176C112.718 54.0862 107.609 56.2981 103.439 57.9786C99.2229 59.6775 96.0751 60.788 94.8211 61.016C93.9913 61.1669 92.9672 61.578 91.8469 62.1317C90.7084 62.6944 89.4003 63.4402 87.9835 64.3124C85.1492 66.0572 81.8301 68.3387 78.4783 70.7507C71.7723 75.5765 64.883 80.9629 61.3821 83.7135C59.7515 84.9948 57.8946 85.8581 55.6868 86.6889C54.833 87.0102 53.8909 87.3383 52.8872 87.6877C51.389 88.2094 49.7529 88.779 48.0696 89.445C42.2749 91.7374 35.1643 95.4277 26.3139 103.772C12.1992 117.08 -1.25317 137.596 1.00401 162.59C2.94543 184.087 20.0036 198.94 39.6048 207.882C59.2182 216.828 81.7186 220.024 95.1497 217.989C103.501 216.723 116.329 212.882 130.876 207.811C145.445 202.734 161.805 196.399 177.252 190.114C192.699 183.828 207.241 177.59 218.174 172.702C223.639 170.258 228.208 168.15 231.538 166.542C233.203 165.738 234.565 165.056 235.578 164.517C236.545 164.002 237.304 163.563 237.658 163.252C238.109 162.858 239.748 161.662 242.372 159.809C244.967 157.976 248.468 155.541 252.584 152.698C260.816 147.012 271.501 139.701 282.313 132.326C294.43 124.061 306.709 115.715 315.866 109.491L315.877 109.483L315.903 109.465C323.065 104.597 328.311 101.031 330.066 99.824C332.268 98.3105 335.111 94.7627 337.58 89.8725C340.067 84.9459 342.231 78.5478 342.995 71.2287C344.526 56.552 340.419 38.2455 322.192 20.7779C288.821 -11.203 249.462 3.02363 235.833 7.95C234.552 8.41287 233.499 8.79367 232.699 9.04628C228.093 10.5007 223.225 10.7499 217.952 11.001L217.767 11.0098C212.583 11.2565 207.044 11.5201 201.248 13.0322C198.33 13.7935 196.444 14.5417 195.109 15.3465C193.743 16.1697 198.915 11.307 192.332 17.8902C185.749 24.4734 177.38 26.3967 174.654 27.1589ZM191.306 22.0699C216.073 16.7865 233.293 23.1457 248.879 28.9016H248.88C254.114 30.8346 259.164 32.6996 264.254 34.0326C269.665 35.4497 275.525 38.6477 281.24 42.4318C286.967 46.2234 292.622 50.6546 297.619 54.5893L298.098 54.9665C302.921 58.7653 307.057 62.0226 310.073 63.8117C311.669 64.7584 312.762 65.1736 313.402 65.1857C313.672 65.1908 313.752 65.1221 313.783 65.091C313.835 65.0382 313.956 64.8658 314.006 64.3953C314.095 63.5479 313.713 62.2724 312.669 60.5606C311.648 58.8866 310.088 56.9457 308.078 54.8198C304.062 50.5722 298.346 45.689 291.842 40.8656C278.816 31.2051 262.801 21.9094 251.215 18.4582C241.994 15.7116 230.184 15.5332 219.096 16.4589C208.549 17.3394 198.752 19.2101 192.633 20.7427C192.308 21.1162 191.933 21.5088 191.481 21.915C191.424 21.9665 191.366 22.0181 191.306 22.0699ZM136.849 44.1564C137.501 43.7589 138.035 43.2157 138.677 42.9977C147.5 40 162.489 36.5238 178.108 35.4226C193.755 34.3195 210.039 35.9158 221.971 43.3489C228.346 47.3197 234.73 51.0969 240.862 54.7251L240.863 54.7258C249.483 59.8256 257.605 64.6313 264.505 69.2675C270.391 73.2228 275.305 77.0032 278.8 80.6668C282.309 84.3445 284.276 87.7884 284.503 91.0687C284.554 91.8101 284.378 92.1178 284.235 92.2565C284.074 92.4128 283.724 92.5815 282.982 92.5723C281.476 92.5536 279.098 91.813 275.979 90.4155C269.808 87.6505 261.317 82.593 252.34 77.0251C249.521 75.277 246.656 73.4793 243.804 71.6904C237.605 67.8007 231.472 63.9529 226.031 60.7477C222.058 58.4067 218.429 56.3932 215.39 54.9466C212.4 53.5234 209.832 52.5724 208.04 52.5007C205.095 52.3829 201.004 51.0415 195.754 49.2415C195.443 49.1346 195.127 49.0264 194.808 48.9169C189.822 47.2043 183.962 45.1915 177.417 43.6515C165.798 40.9178 151.983 39.6633 136.849 44.1564ZM120.182 108.448C74.0519 92.9385 53.4364 109.395 48.9036 118.929L48.9029 118.931C48.8964 118.943 48.8678 118.999 48.9401 119.176C49.0265 119.387 49.2312 119.694 49.6297 120.092C50.4244 120.887 51.7783 121.84 53.6793 122.927C57.4619 125.089 63.1611 127.639 70.1713 130.397C84.1774 135.908 103.266 142.191 122.345 147.79C141.423 153.39 160.46 158.298 174.36 161.066C181.322 162.452 186.944 163.291 190.627 163.424C192.502 163.492 193.733 163.369 194.377 163.13C194.508 163.081 194.587 163.038 194.632 163.009C194.624 162.988 194.613 162.963 194.599 162.932C189.063 151.372 166.359 123.973 120.182 108.448ZM194.649 163.076C194.649 163.076 194.649 163.073 194.649 163.067C194.65 163.073 194.649 163.076 194.649 163.076ZM47.0974 118.07C52.2313 107.272 74.1491 90.8612 120.819 106.552C167.442 122.227 190.605 149.961 196.402 162.068C196.662 162.611 196.774 163.268 196.453 163.898C196.155 164.482 195.597 164.811 195.072 165.005C194.027 165.393 192.449 165.491 190.555 165.423C186.702 165.284 180.947 164.417 173.969 163.028C159.989 160.243 140.89 155.318 121.781 149.709C102.672 144.101 83.5215 137.8 69.439 132.259C62.405 129.491 56.5977 126.898 52.6869 124.663C50.7413 123.551 49.2018 122.492 48.2158 121.507C47.724 121.015 47.3165 120.49 47.0888 119.932C46.8505 119.349 46.7997 118.697 47.0974 118.07ZM95.2907 75.9489C92.5059 76.1849 89.9192 76.5226 87.6507 76.9717C103.93 66.0806 137.989 52.4734 174.14 66.4328C199.286 76.1426 221.079 89.7158 236.205 101.294C243.769 107.084 249.647 112.361 253.436 116.388C255.335 118.408 256.68 120.082 257.452 121.329C257.836 121.95 258.046 122.413 258.13 122.727C257.967 122.729 257.755 122.72 257.485 122.693C256.679 122.612 255.535 122.393 254.073 122.038C251.16 121.331 247.121 120.118 242.288 118.534C232.629 115.369 219.88 110.75 206.791 105.814C180.596 95.9365 153.138 84.8266 146.434 81.5989C142.934 79.9135 137.888 78.5822 132.169 77.6003C126.434 76.6154 119.953 75.9712 113.544 75.6884C107.136 75.4057 100.779 75.4836 95.2907 75.9489ZM258.17 122.985C258.17 122.985 258.17 122.981 258.171 122.975C258.17 122.982 258.17 122.985 258.17 122.985ZM258.445 122.696L258.437 122.699C258.448 122.696 258.452 122.694 258.452 122.694C258.452 122.694 258.449 122.695 258.445 122.696ZM174.86 64.5671C134.008 48.7926 95.868 67.424 81.8721 78.7219L82.8989 80.417C85.6176 79.235 90.0444 78.4008 95.4597 77.9417C100.846 77.4851 107.115 77.4067 113.456 77.6865C119.797 77.9662 126.192 78.6032 131.831 79.5715C137.488 80.5427 142.317 81.8364 145.566 83.4009C152.363 86.6733 179.905 97.8133 206.085 107.686C219.183 112.625 231.965 117.256 241.665 120.435C246.512 122.023 250.61 123.255 253.601 123.981C255.092 124.343 256.341 124.588 257.285 124.683C257.754 124.73 258.19 124.744 258.562 124.702C258.877 124.667 259.403 124.567 259.759 124.151C260.271 123.554 260.214 122.792 260.068 122.233C259.913 121.64 259.586 120.977 259.152 120.276C258.278 118.863 256.829 117.077 254.893 115.018C251.009 110.889 245.044 105.541 237.421 99.7059C222.172 88.0341 200.215 74.3573 174.86 64.5671Z" fill="#9C92FD" fill-opacity="0.1"/>
</svg>
