<svg width="348" height="220" viewBox="0 0 348 220" fill="none" xmlns="http://www.w3.org/2000/svg">
<path fill-rule="evenodd" clip-rule="evenodd" d="M238.868 9.38682C237.539 9.86296 236.434 10.2588 235.58 10.5274C230.622 12.0869 225.423 12.3398 220.128 12.5909L220.013 12.5964C214.718 12.8474 209.286 13.1049 203.619 14.5772C200.75 15.3226 199.051 16.018 197.935 16.6878C197.311 17.0625 196.855 17.4369 196.468 17.8333C202.753 16.4066 211.595 14.8548 221.021 14.0711C232.337 13.1302 244.602 13.2865 254.306 16.1651C266.375 19.7456 282.822 29.284 296.091 39.085C302.736 43.9924 308.626 48.9971 312.805 53.3977C314.892 55.5959 316.577 57.6693 317.714 59.5255C318.826 61.3433 319.516 63.1147 319.353 64.6559C319.276 65.3792 319.051 66.0645 318.551 66.5664C318.031 67.0902 317.356 67.2722 316.687 67.2596C315.452 67.2362 313.932 66.5437 312.32 65.5914C309.145 63.7164 304.865 60.3589 300.064 56.5924L300.063 56.5919L299.484 56.1368C294.414 52.1614 288.747 47.7412 283.026 43.9683C277.292 40.1878 271.578 37.1085 266.423 35.7638C260.999 34.3491 255.725 32.4114 250.327 30.4283C250.324 30.4272 250.322 30.4261 250.319 30.4251C234.204 24.5036 216.993 18.1796 191.439 24.1677C190.125 24.4756 188.912 24.7555 187.793 25.0085C187.727 25.0407 187.659 25.073 187.591 25.1053C184.845 26.407 181.004 27.6244 176.759 28.8074C173.966 29.5859 170.96 30.3597 167.939 31.1371L167.938 31.1374C167.87 31.1549 167.803 31.1723 167.735 31.1897C166.227 31.5779 164.715 31.9671 163.227 32.3583C158.67 33.5558 154.309 34.7755 150.747 36.0669C148.967 36.7123 147.407 37.3683 146.133 38.0386C144.848 38.7145 143.911 39.3755 143.328 40.0096L143.292 40.0475C152.504 37.1738 165.7 34.1721 179.524 33.2015C195.525 32.078 212.543 33.6624 225.174 41.4984C231.521 45.4366 237.947 49.2236 244.145 52.877C244.156 52.8835 244.167 52.8901 244.179 52.8966C252.97 58.0779 261.305 62.9907 268.32 67.6855C274.325 71.7031 279.446 75.6134 283.138 79.4681C286.818 83.3087 289.193 87.2117 289.471 91.2166C289.546 92.2972 289.32 93.2952 288.59 94.0011C287.879 94.6893 286.889 94.9024 285.885 94.89C283.899 94.8655 281.151 93.9496 277.987 92.5377C271.591 89.6839 262.876 84.5082 253.799 78.9017C250.942 77.1375 248.049 75.3297 245.176 73.5342C245.155 73.521 245.134 73.5078 245.113 73.4946C245.1 73.487 245.088 73.4794 245.076 73.4719C238.821 69.5638 232.663 65.7163 227.187 62.5032C223.179 60.1517 219.563 58.1554 216.564 56.7339C213.517 55.2889 211.26 54.5144 209.908 54.4605C206.56 54.3272 202.094 52.8429 196.887 51.0649C196.575 50.9584 196.259 50.8507 195.941 50.742L195.939 50.7411C190.878 49.0104 185.03 47.0101 178.503 45.4806C164.647 42.2338 147.57 40.6252 129.095 48.8307C126.037 50.3833 122.744 51.9667 119.453 53.485C114.248 55.8875 109.04 58.1329 104.78 59.8424C100.567 61.5335 97.1713 62.7462 95.6557 63.0206C95.1034 63.1207 94.273 63.431 93.1781 63.9699C92.1016 64.4997 90.8348 65.2173 89.4287 66.0793C86.6175 67.8028 83.3001 70.0727 79.9209 72.4944C73.1649 77.3363 66.2147 82.7476 62.67 85.5215C60.7763 87.0032 58.6684 87.9609 56.3621 88.8252C55.3778 89.1941 54.3941 89.5343 53.3733 89.8872C53.3704 89.8882 53.3675 89.8892 53.3646 89.8902C51.9127 90.3923 50.386 90.9203 48.6773 91.5935C43.0242 93.8209 36.0449 97.4122 27.2824 105.64C13.216 118.848 0.0620318 138.98 2.27025 163.331C4.13917 183.941 20.5929 198.465 40.1976 207.372C59.7899 216.272 82.1848 219.392 95.3227 217.409C103.578 216.164 116.415 212.347 131.152 207.231C145.867 202.123 162.407 195.746 178.036 189.412C193.665 183.079 208.374 176.794 219.428 171.873C224.956 169.412 229.563 167.294 232.913 165.683C234.589 164.877 235.942 164.202 236.935 163.675C237.975 163.125 238.513 162.792 238.659 162.662C239.217 162.177 240.992 160.894 243.6 159.059C246.238 157.203 249.791 154.742 253.963 151.872C262.307 146.133 273.136 138.754 284.09 131.313C296.377 122.966 308.818 114.544 318.091 108.267C318.165 108.217 318.238 108.168 318.311 108.118C325.465 103.275 330.698 99.732 332.459 98.5258C334.282 97.2783 336.974 94.0476 339.411 89.2393C341.83 84.4675 343.943 78.2482 344.689 71.1295C346.177 56.931 342.233 39.0801 324.228 21.8962C291.403 -9.43302 252.807 4.39371 238.868 9.38682ZM176.168 26.8771C173.406 27.6461 170.452 28.4064 167.461 29.1761C165.88 29.5829 164.289 29.9925 162.71 30.4073C158.15 31.6059 153.711 32.8453 150.054 34.1708C148.225 34.8338 146.572 35.5256 145.187 36.2545C143.812 36.9775 142.644 37.7668 141.835 38.6461C141.225 39.3086 140.139 40.16 138.626 41.159C137.129 42.1475 135.271 43.2444 133.164 44.4034C128.95 46.721 123.781 49.2638 118.601 51.6543C113.424 54.0439 108.248 56.2755 104.024 57.9709C99.7526 59.685 96.5637 60.8053 95.2934 61.0354C94.4527 61.1876 93.4153 61.6024 92.2804 62.161C91.127 62.7287 89.8018 63.4811 88.3666 64.3611C85.4953 66.1214 82.1329 68.4232 78.7374 70.8567C71.9439 75.7254 64.9647 81.1597 61.4181 83.9348C59.7663 85.2275 57.8851 86.0985 55.6485 86.9367C54.7836 87.2608 53.8292 87.5918 52.8124 87.9443C51.2947 88.4707 49.6372 89.0453 47.932 89.7173C42.0617 92.0301 34.8583 95.7532 25.8924 104.172C11.5936 117.598 -2.03425 138.297 0.252376 163.513C2.21912 185.201 19.4998 200.186 39.3567 209.208C59.226 218.233 82.0199 221.458 95.6262 219.405C104.086 218.127 117.082 214.252 131.819 209.136C146.578 204.014 163.151 197.623 178.8 191.282C194.448 184.94 209.18 178.646 220.255 173.715C225.792 171.249 230.42 169.122 233.794 167.5C235.481 166.689 236.86 166.001 237.887 165.457C238.866 164.938 239.635 164.495 239.994 164.181C240.451 163.783 242.111 162.577 244.769 160.707C247.398 158.858 250.945 156.401 255.114 153.533C263.454 147.796 274.278 140.42 285.231 132.98C297.506 124.641 309.945 116.221 319.222 109.942L319.233 109.934L319.259 109.915C326.515 105.004 331.829 101.406 333.607 100.189C335.838 98.6616 338.718 95.0823 341.219 90.1486C343.739 85.1781 345.931 78.7231 346.705 71.3389C348.256 56.5317 344.095 38.0623 325.63 20.4393C291.824 -11.8261 251.952 2.52711 238.145 7.49731C236.847 7.96429 235.78 8.34848 234.97 8.60334C230.304 10.0707 225.372 10.3221 220.031 10.5754L219.843 10.5843C214.592 10.8332 208.98 11.0992 203.109 12.6247C200.153 13.3928 198.242 14.1476 196.89 14.9596C195.506 15.7901 200.745 10.8842 194.076 17.5259C187.407 24.1677 178.929 26.1081 176.168 26.8771ZM193.037 21.7428C218.127 16.4124 235.572 22.8282 251.361 28.6353H251.362C256.664 30.5855 261.78 32.4671 266.937 33.8119C272.418 35.2416 278.355 38.4681 284.144 42.2859C289.946 46.1112 295.675 50.5818 300.737 54.5515L301.222 54.9321C306.108 58.7646 310.298 62.0509 313.353 63.8559C314.97 64.8111 316.077 65.23 316.726 65.2422C316.999 65.2473 317.08 65.178 317.112 65.1466C317.164 65.0934 317.287 64.9194 317.338 64.4447C317.428 63.5898 317.041 62.3029 315.983 60.5759C314.949 58.887 313.369 56.9289 311.332 54.784C307.264 50.4987 301.473 45.572 294.885 40.7057C281.689 30.9593 265.465 21.5809 253.728 18.099C244.386 15.328 232.422 15.148 221.189 16.0819C210.505 16.9702 200.58 18.8576 194.381 20.4038C194.052 20.7806 193.672 21.1767 193.214 21.5865C193.156 21.6385 193.098 21.6906 193.037 21.7428ZM137.87 44.0258C138.53 43.6248 139.071 43.0767 139.721 42.8568C148.659 39.8324 163.844 36.3253 179.667 35.2143C195.518 34.1014 212.014 35.7119 224.102 43.2111C230.557 47.215 237.02 51.0239 243.229 54.6825C243.233 54.6845 243.236 54.6865 243.239 54.6885L243.24 54.6892C251.973 59.8344 260.201 64.6828 267.191 69.3603C273.154 73.3508 278.132 77.1648 281.672 80.861C285.227 84.5714 287.22 88.0459 287.45 91.3554C287.501 92.1034 287.323 92.4138 287.178 92.5538C287.015 92.7115 286.661 92.8817 285.909 92.8724C284.383 92.8535 281.974 92.1063 278.815 90.6964C272.563 87.9068 263.961 82.8043 254.867 77.1869C252.097 75.4761 249.283 73.7183 246.48 71.9671C246.393 71.913 246.306 71.8588 246.22 71.8047C239.94 67.8804 233.727 63.9984 228.215 60.7647C224.19 58.4029 220.514 56.3714 217.435 54.912C214.406 53.4761 211.805 52.5167 209.989 52.4443C207.006 52.3255 202.861 50.9721 197.543 49.1561C197.228 49.0483 196.908 48.9391 196.585 48.8286C191.534 47.1008 185.597 45.0701 178.967 43.5164C167.196 40.7584 153.201 39.4927 137.87 44.0258ZM120.985 108.889C74.2532 93.2418 53.3688 109.845 48.7768 119.464L48.7761 119.466C48.7696 119.478 48.7406 119.534 48.8138 119.713C48.9013 119.926 49.1087 120.235 49.5124 120.637C50.3175 121.439 51.689 122.4 53.6148 123.497C57.4468 125.678 63.2203 128.251 70.322 131.034C84.5108 136.594 103.848 142.932 123.176 148.581C142.503 154.231 161.789 159.183 175.87 161.975C182.923 163.374 188.618 164.22 192.349 164.354C194.249 164.423 195.496 164.299 196.148 164.058C196.281 164.008 196.361 163.965 196.406 163.936C196.398 163.914 196.387 163.889 196.373 163.858C190.765 152.195 167.765 124.552 120.985 108.889ZM196.424 164.003C196.424 164.003 196.424 164 196.424 163.994C196.425 164 196.424 164.003 196.424 164.003ZM46.9471 118.597C52.148 107.703 74.3517 91.1461 121.63 106.976C168.862 122.791 192.327 150.772 198.199 162.986C198.463 163.534 198.576 164.197 198.251 164.833C197.949 165.422 197.384 165.754 196.852 165.949C195.793 166.341 194.195 166.44 192.276 166.371C188.373 166.231 182.543 165.356 175.474 163.955C161.311 161.145 141.963 156.176 122.605 150.517C103.247 144.859 83.8464 138.502 69.5801 132.912C62.4544 130.12 56.5713 127.503 52.6095 125.249C50.6385 124.127 49.0789 123.058 48.0801 122.064C47.5819 121.568 47.169 121.038 46.9384 120.475C46.697 119.887 46.6455 119.229 46.9471 118.597ZM95.7691 76.1011C92.948 76.3392 90.3275 76.6799 88.0294 77.133C104.521 66.145 139.024 52.4168 175.647 66.5004C201.121 76.2965 223.198 89.9905 238.522 101.672C246.184 107.513 252.139 112.837 255.977 116.9C257.901 118.938 259.264 120.627 260.046 121.885C260.435 122.511 260.648 122.979 260.733 123.295C260.568 123.297 260.353 123.288 260.079 123.261C259.263 123.179 258.104 122.958 256.623 122.6C253.672 121.887 249.58 120.663 244.684 119.065C234.899 115.872 221.984 111.212 208.724 106.232C182.187 96.2665 154.371 85.0578 147.58 81.8014C144.034 80.101 138.922 78.7578 133.128 77.7672C127.319 76.7735 120.753 76.1236 114.261 75.8383C107.769 75.5531 101.329 75.6317 95.7691 76.1011ZM260.773 123.556C260.773 123.556 260.773 123.552 260.774 123.546C260.773 123.553 260.773 123.556 260.773 123.556ZM261.052 123.264L261.044 123.267C261.055 123.264 261.059 123.262 261.059 123.262C261.059 123.262 261.056 123.263 261.052 123.264ZM176.376 64.6181C134.991 48.7032 96.3539 67.5004 82.1754 78.8988L83.2156 80.609C85.9698 79.4164 90.4544 78.5748 95.9403 78.1116C101.397 77.651 107.748 77.5719 114.171 77.8542C120.595 78.1364 127.074 78.779 132.786 79.7559C138.517 80.7358 143.409 82.041 146.7 83.6194C153.586 86.9209 181.487 98.16 208.009 108.121C221.278 113.103 234.226 117.776 244.053 120.983C248.963 122.585 253.115 123.828 256.145 124.56C257.655 124.926 258.92 125.173 259.877 125.269C260.352 125.316 260.793 125.33 261.17 125.288C261.489 125.253 262.022 125.152 262.383 124.732C262.902 124.13 262.844 123.361 262.696 122.797C262.539 122.199 262.208 121.53 261.768 120.823C260.883 119.397 259.415 117.595 257.453 115.518C253.519 111.352 247.476 105.956 239.754 100.069C224.306 88.2938 202.062 74.4953 176.376 64.6181Z" fill="#201E22"/>
<path fill-rule="evenodd" clip-rule="evenodd" d="M238.868 9.38682C237.539 9.86296 236.434 10.2588 235.58 10.5274C230.622 12.0869 225.423 12.3398 220.128 12.5909L220.013 12.5964C214.718 12.8474 209.286 13.1049 203.619 14.5772C200.75 15.3226 199.051 16.018 197.935 16.6878C197.311 17.0625 196.855 17.4369 196.468 17.8333C202.753 16.4066 211.595 14.8548 221.021 14.0711C232.337 13.1302 244.602 13.2865 254.306 16.1651C266.375 19.7456 282.822 29.284 296.091 39.085C302.736 43.9924 308.626 48.9971 312.805 53.3977C314.892 55.5959 316.577 57.6693 317.714 59.5255C318.826 61.3433 319.516 63.1147 319.353 64.6559C319.276 65.3792 319.051 66.0645 318.551 66.5664C318.031 67.0902 317.356 67.2722 316.687 67.2596C315.452 67.2362 313.932 66.5437 312.32 65.5914C309.145 63.7164 304.865 60.3589 300.064 56.5924L300.063 56.5919L299.484 56.1368C294.414 52.1614 288.747 47.7412 283.026 43.9683C277.292 40.1878 271.578 37.1085 266.423 35.7638C260.999 34.3491 255.725 32.4114 250.327 30.4283L250.319 30.4251C234.204 24.5036 216.993 18.1796 191.439 24.1677C190.125 24.4756 188.912 24.7555 187.793 25.0085C187.727 25.0407 187.659 25.073 187.591 25.1053C184.845 26.407 181.004 27.6244 176.759 28.8074C173.966 29.5859 170.96 30.3597 167.939 31.1371L167.938 31.1374L167.735 31.1897C166.227 31.5779 164.715 31.9671 163.227 32.3583C158.67 33.5558 154.309 34.7755 150.747 36.0669C148.967 36.7123 147.407 37.3683 146.133 38.0386C144.848 38.7145 143.911 39.3755 143.328 40.0096L143.292 40.0475C152.504 37.1738 165.7 34.1721 179.524 33.2015C195.525 32.078 212.543 33.6624 225.174 41.4984C231.521 45.4366 237.947 49.2236 244.145 52.877L244.179 52.8966C252.97 58.0779 261.305 62.9907 268.32 67.6855C274.325 71.7031 279.446 75.6134 283.138 79.4681C286.818 83.3087 289.193 87.2117 289.471 91.2166C289.546 92.2972 289.32 93.2952 288.59 94.0011C287.879 94.6893 286.889 94.9024 285.885 94.89C283.899 94.8655 281.151 93.9496 277.987 92.5377C271.591 89.6839 262.876 84.5082 253.799 78.9017C250.942 77.1375 248.049 75.3297 245.176 73.5342L245.113 73.4946L245.076 73.4719C238.821 69.5638 232.663 65.7163 227.187 62.5032C223.179 60.1517 219.563 58.1554 216.564 56.7339C213.517 55.2889 211.26 54.5144 209.908 54.4605C206.56 54.3272 202.094 52.8429 196.887 51.0649C196.575 50.9584 196.259 50.8507 195.941 50.742L195.939 50.7411C190.878 49.0104 185.03 47.0101 178.503 45.4806C164.647 42.2338 147.57 40.6252 129.095 48.8307C126.037 50.3833 122.744 51.9667 119.453 53.485C114.248 55.8875 109.04 58.1329 104.78 59.8424C100.567 61.5335 97.1713 62.7462 95.6557 63.0206C95.1034 63.1207 94.273 63.431 93.1781 63.9699C92.1016 64.4997 90.8348 65.2173 89.4287 66.0793C86.6175 67.8028 83.3001 70.0727 79.9209 72.4944C73.1649 77.3363 66.2147 82.7476 62.67 85.5215C60.7763 87.0032 58.6684 87.9609 56.3621 88.8252C55.3778 89.1941 54.3941 89.5343 53.3733 89.8872L53.3646 89.8902C51.9127 90.3923 50.386 90.9203 48.6773 91.5935C43.0242 93.8209 36.0449 97.4122 27.2824 105.64C13.216 118.848 0.0620318 138.98 2.27025 163.331C4.13917 183.941 20.5929 198.465 40.1976 207.372C59.7899 216.272 82.1848 219.392 95.3227 217.409C103.578 216.164 116.415 212.347 131.152 207.231C145.867 202.123 162.407 195.746 178.036 189.412C193.665 183.079 208.374 176.794 219.428 171.873C224.956 169.412 229.563 167.294 232.913 165.683C234.589 164.877 235.942 164.202 236.935 163.675C237.975 163.125 238.513 162.792 238.659 162.662C239.217 162.177 240.992 160.894 243.6 159.059C246.238 157.203 249.791 154.742 253.963 151.872C262.307 146.133 273.136 138.754 284.09 131.313C296.377 122.966 308.818 114.544 318.091 108.267L318.311 108.118C325.465 103.275 330.698 99.732 332.459 98.5258C334.282 97.2783 336.974 94.0476 339.411 89.2393C341.83 84.4675 343.943 78.2482 344.689 71.1295C346.177 56.931 342.233 39.0801 324.228 21.8962C291.403 -9.43302 252.807 4.39371 238.868 9.38682ZM121.63 106.976C74.3517 91.1461 52.148 107.703 46.9471 118.597C46.6455 119.229 46.697 119.887 46.9384 120.475C47.169 121.038 47.5819 121.568 48.0801 122.064C49.0789 123.058 50.6385 124.127 52.6095 125.249C56.5713 127.503 62.4544 130.12 69.5801 132.912C83.8464 138.502 103.247 144.859 122.605 150.517C141.963 156.176 161.311 161.145 175.474 163.955C182.543 165.356 188.373 166.231 192.276 166.371C194.195 166.44 195.793 166.341 196.852 165.949C197.384 165.754 197.949 165.422 198.251 164.833C198.576 164.197 198.463 163.534 198.199 162.986C192.327 150.772 168.862 122.791 121.63 106.976ZM82.1754 78.8988C96.3539 67.5004 134.991 48.7032 176.376 64.6181C202.062 74.4953 224.306 88.2938 239.754 100.069C247.476 105.956 253.519 111.352 257.453 115.518C259.415 117.595 260.883 119.397 261.768 120.823C262.208 121.53 262.539 122.199 262.696 122.797C262.844 123.361 262.902 124.13 262.383 124.732C262.022 125.152 261.489 125.253 261.17 125.288C260.793 125.33 260.352 125.316 259.877 125.269C258.92 125.173 257.655 124.926 256.145 124.56C253.115 123.828 248.963 122.585 244.053 120.983C234.226 117.776 221.278 113.103 208.009 108.121C181.487 98.16 153.586 86.9209 146.7 83.6194C143.409 82.041 138.517 80.7358 132.786 79.7559C127.074 78.779 120.595 78.1364 114.171 77.8542C107.748 77.5719 101.397 77.651 95.9403 78.1116C90.4544 78.5748 85.9698 79.4164 83.2156 80.609L82.1754 78.8988Z" fill="#201E22"/>
<path d="M120.985 108.889C74.2532 93.2418 53.3688 109.845 48.7768 119.464L48.7761 119.466C48.7696 119.478 48.7406 119.534 48.8138 119.713C48.9013 119.926 49.1087 120.235 49.5124 120.637C50.3175 121.439 51.689 122.4 53.6148 123.497C57.4468 125.678 63.2203 128.251 70.322 131.034C84.5108 136.594 103.848 142.932 123.176 148.581C142.503 154.231 161.789 159.183 175.87 161.975C182.923 163.374 188.618 164.22 192.349 164.354C194.249 164.423 195.496 164.299 196.148 164.058C196.281 164.008 196.361 163.965 196.406 163.936C196.398 163.914 196.387 163.889 196.373 163.858C190.765 152.195 167.765 124.552 120.985 108.889Z" fill="#201E22"/>
<path d="M95.7691 76.1011C92.948 76.3392 90.3275 76.6799 88.0294 77.133C104.521 66.145 139.024 52.4168 175.647 66.5004C201.121 76.2965 223.198 89.9905 238.522 101.672C246.184 107.513 252.139 112.837 255.977 116.9C257.901 118.938 259.264 120.627 260.046 121.885C260.435 122.511 260.648 122.979 260.733 123.295C260.568 123.297 260.353 123.288 260.079 123.261C259.263 123.179 258.104 122.958 256.623 122.6C253.672 121.887 249.58 120.663 244.684 119.065C234.899 115.872 221.984 111.212 208.724 106.232C182.187 96.2665 154.371 85.0578 147.58 81.8014C144.034 80.101 138.922 78.7578 133.128 77.7672C127.319 76.7735 120.753 76.1236 114.261 75.8383C107.769 75.5531 101.329 75.6317 95.7691 76.1011Z" fill="#201E22"/>
<path d="M137.87 44.0258C138.53 43.6248 139.071 43.0767 139.721 42.8568C148.659 39.8324 163.844 36.3253 179.667 35.2143C195.518 34.1014 212.014 35.7119 224.102 43.2111C230.557 47.215 237.02 51.0239 243.229 54.6825L243.239 54.6885L243.24 54.6892C251.973 59.8344 260.201 64.6828 267.191 69.3603C273.154 73.3508 278.132 77.1648 281.672 80.861C285.227 84.5714 287.22 88.0459 287.45 91.3554C287.501 92.1034 287.323 92.4138 287.178 92.5538C287.015 92.7115 286.661 92.8817 285.909 92.8724C284.383 92.8535 281.974 92.1063 278.815 90.6964C272.563 87.9068 263.961 82.8043 254.867 77.1869C252.097 75.4761 249.283 73.7183 246.48 71.9671L246.22 71.8047C239.94 67.8804 233.727 63.9984 228.215 60.7647C224.19 58.4029 220.514 56.3714 217.435 54.912C214.406 53.4761 211.805 52.5167 209.989 52.4443C207.006 52.3255 202.861 50.9721 197.543 49.1561C197.228 49.0483 196.908 48.9391 196.585 48.8286C191.534 47.1008 185.597 45.0701 178.967 43.5164C167.196 40.7584 153.201 39.4927 137.87 44.0258Z" fill="#201E22"/>
<path d="M193.037 21.7428C218.127 16.4124 235.572 22.8282 251.361 28.6353H251.362C256.664 30.5855 261.78 32.4671 266.937 33.8119C272.418 35.2416 278.355 38.4681 284.144 42.2859C289.946 46.1112 295.675 50.5818 300.737 54.5515L301.222 54.9321C306.108 58.7646 310.298 62.0509 313.353 63.8559C314.97 64.8111 316.077 65.23 316.726 65.2422C316.999 65.2473 317.08 65.178 317.112 65.1466C317.164 65.0934 317.287 64.9194 317.338 64.4447C317.428 63.5898 317.041 62.3029 315.983 60.5759C314.949 58.887 313.369 56.9289 311.332 54.784C307.264 50.4987 301.473 45.572 294.885 40.7057C281.689 30.9593 265.465 21.5809 253.728 18.099C244.386 15.328 232.422 15.148 221.189 16.0819C210.505 16.9702 200.58 18.8576 194.381 20.4038C194.052 20.7806 193.672 21.1767 193.214 21.5865C193.156 21.6385 193.098 21.6906 193.037 21.7428Z" fill="#201E22"/>
</svg>
