<svg width="126" height="250" viewBox="0 0 126 250" fill="none" xmlns="http://www.w3.org/2000/svg">
<path fill-rule="evenodd" clip-rule="evenodd" d="M0.00146484 62.7451L0.00200653 246.078V250H3.90826H121.096H125.002V246.078L125.001 96.0784V92.1569C125.001 89.9995 123.252 88.2353 121.095 88.2353C119.866 88.2353 118.705 88.8192 117.97 89.8039C104.153 108.299 80.1492 117.647 62.5016 117.647C35.4374 117.647 12.9649 97.9099 8.58622 71.9914C8.10323 69.1324 10.4157 66.6667 13.3152 66.6667H121.095C123.252 66.6667 125.001 64.9025 125.001 62.7451C125.001 51.3762 121.989 40.7136 116.723 31.5175C115.883 30.0506 113.821 29.9508 112.366 30.8101C110.916 31.666 109.226 32.1569 107.423 32.1569C102.029 32.1569 97.6578 27.7675 97.6578 22.3529C97.6578 20.1476 98.383 18.1124 99.6072 16.4745C100.614 15.1272 100.738 13.0806 99.3835 12.0845C89.0456 4.48617 76.2956 0 62.5016 0C27.9838 0 0.00146484 28.0919 0.00146484 62.7451ZM44.5328 41.9608C44.5328 47.3754 40.1606 51.7647 34.7671 51.7647C29.3737 51.7647 25.0015 47.3754 25.0015 41.9608C25.0015 36.5462 29.3737 32.1569 34.7671 32.1569C40.1606 32.1569 44.5328 36.5462 44.5328 41.9608Z" fill="#F7F7F7"/>
</svg>
