<svg width="128" height="128" viewBox="0 0 128 128" fill="none" xmlns="http://www.w3.org/2000/svg">
<path d="M128 64C128 99.3462 99.3462 128 64 128C28.6538 128 0 99.3462 0 64C0 28.6538 28.6538 0 64 0C99.3462 0 128 28.6538 128 64Z" fill="#0A0A0A"/>
<path d="M88.0014 28C91.0226 28.0005 93.9819 28.8563 96.537 30.4685C99.092 32.0806 101.138 34.3833 102.439 37.11C103.74 39.8367 104.243 42.876 103.889 45.8763C103.534 48.8766 102.338 51.7153 100.437 54.064L99.9975 54.568L100.001 88C100.002 91.0608 98.8321 94.0061 96.7323 96.233C94.6325 98.46 91.761 99.8004 88.7055 99.98L88.0014 100H40.0014C36.8189 100 33.7666 98.7357 31.5162 96.4853C29.2657 94.2348 28.0015 91.1826 28.0015 88V54.576L27.5375 54.032C25.9269 52.0317 24.8216 49.6732 24.3147 47.1557C23.8079 44.6382 23.9145 42.0356 24.6255 39.568L24.8935 38.728C27.0215 32.628 32.6135 28.408 39.2975 28.02L87.6134 28.024L88.0014 28Z" fill="white"/>
</svg>
