<svg width="517" height="440" viewBox="0 0 517 440" fill="none" xmlns="http://www.w3.org/2000/svg">
<path fill-rule="evenodd" clip-rule="evenodd" d="M237.49 9.38682C236.169 9.86296 235.07 10.2588 234.221 10.5274C229.291 12.0869 224.122 12.3398 218.858 12.5909L218.744 12.5964C213.479 12.8474 208.079 13.1049 202.444 14.5772C199.592 15.3226 197.903 16.018 196.793 16.6878C196.173 17.0625 195.719 17.4369 195.335 17.8333C201.583 16.4066 210.374 14.8548 219.746 14.0711C230.997 13.1302 243.191 13.2865 252.839 16.1651C264.839 19.7456 281.19 29.284 294.383 39.085C300.989 43.9924 306.846 48.9971 311.001 53.3977C313.075 55.5959 314.75 57.6693 315.881 59.5255C316.986 61.3433 317.672 63.1147 317.51 64.6559C317.434 65.3792 317.21 66.0645 316.713 66.5664C316.196 67.0902 315.525 67.2722 314.86 67.2596C313.632 67.2362 312.121 66.5437 310.518 65.5914C307.362 63.7164 303.106 60.3589 298.333 56.5924L298.332 56.5919L297.756 56.1368C292.716 52.1614 287.082 47.7411 281.393 43.9683C275.692 40.1877 270.012 37.1085 264.886 35.7638C259.49 34.3484 254.244 32.4093 248.874 30.4251C232.853 24.5036 215.742 18.1796 190.335 24.1677C189.029 24.4756 187.822 24.7555 186.71 25.0085C186.644 25.0407 186.576 25.073 186.509 25.1053C183.779 26.407 179.96 27.6244 175.74 28.8074C172.963 29.5859 169.973 30.3597 166.97 31.1371L166.969 31.1374C165.403 31.543 163.831 31.9495 162.285 32.3583C157.755 33.5558 153.419 34.7755 149.878 36.0669C148.108 36.7123 146.557 37.3683 145.29 38.0386C144.013 38.7145 143.081 39.3755 142.501 40.0096L142.466 40.0475C151.624 37.1738 164.744 34.1721 178.488 33.2015C194.397 32.078 211.317 33.6624 223.875 41.4984C230.197 45.4437 236.597 49.2371 242.77 52.8966C251.51 58.0779 259.798 62.9907 266.772 67.6855C272.742 71.7031 277.833 75.6134 281.505 79.4681C285.163 83.3087 287.525 87.2117 287.801 91.2166C287.875 92.2972 287.651 93.2952 286.925 94.0011C286.218 94.6893 285.233 94.9024 284.235 94.89C282.261 94.8655 279.529 93.9496 276.383 92.5377C270.024 89.6839 261.36 84.5082 252.335 78.9017C249.474 77.1245 246.576 75.3032 243.698 73.4946C237.467 69.5787 231.331 65.7225 225.876 62.5032C221.892 60.1517 218.296 58.1554 215.315 56.7339C212.285 55.2889 210.041 54.5144 208.697 54.4605C205.368 54.3272 200.928 52.8429 195.751 51.0649C195.44 50.9584 195.127 50.8507 194.811 50.742C189.779 49.011 183.963 47.0104 177.473 45.4806C163.697 42.2338 146.719 40.6252 128.35 48.8307C125.31 50.3833 122.036 51.9667 118.764 53.485C113.589 55.8875 108.411 58.1329 104.176 59.8425C99.987 61.5335 96.6106 62.7462 95.1039 63.0206C94.5547 63.1207 93.7291 63.431 92.6405 63.9699C91.5702 64.4997 90.3108 65.2173 88.9128 66.0793C86.1178 67.8028 82.8195 70.0727 79.4598 72.4944C72.7428 77.3363 65.8327 82.7476 62.3084 85.5215C60.4256 87.0032 58.3299 87.9609 56.037 88.8252C55.0584 89.1941 54.0803 89.5343 53.0654 89.8872C51.6193 90.3902 50.0987 90.919 48.3964 91.5935C42.7759 93.8209 35.8369 97.4122 27.125 105.64C13.1398 118.848 0.0616737 138.98 2.25715 163.331C4.11529 183.941 20.4741 198.465 39.9656 207.372C59.4449 216.272 81.7106 219.392 94.7728 217.409C102.98 216.164 115.744 212.347 130.395 207.231C145.025 202.123 161.47 195.746 177.009 189.412C192.548 183.079 207.172 176.794 218.162 171.873C223.658 169.412 228.239 167.294 231.57 165.683C233.236 164.877 234.581 164.202 235.568 163.675C236.602 163.125 237.137 162.792 237.283 162.662C237.837 162.177 239.601 160.894 242.195 159.059C244.817 157.203 248.35 154.742 252.497 151.872C260.794 146.133 271.561 138.754 282.45 131.313C294.667 122.966 307.036 114.544 316.256 108.267C323.481 103.347 328.773 99.7443 330.541 98.5258C332.353 97.2783 335.029 94.0476 337.453 89.2393C339.858 84.4675 341.959 78.2482 342.7 71.1295C344.18 56.931 340.259 39.0801 322.358 21.8962C289.721 -9.43302 251.348 4.39371 237.49 9.38682ZM175.151 26.8771C172.406 27.6461 169.469 28.4064 166.494 29.1761C164.923 29.5829 163.341 29.9925 161.772 30.4073C157.237 31.6059 152.824 32.8453 149.189 34.1708C147.37 34.8338 145.726 35.5256 144.349 36.2545C142.982 36.9775 141.821 37.7668 141.016 38.6461C140.41 39.3086 139.33 40.16 137.826 41.159C136.338 42.1475 134.491 43.2444 132.396 44.4034C128.206 46.721 123.067 49.2638 117.917 51.6543C112.769 54.0439 107.624 56.2755 103.424 57.9709C99.1771 59.685 96.0066 60.8053 94.7436 61.0354C93.9078 61.1876 92.8763 61.6024 91.748 62.161C90.6013 62.7287 89.2837 63.4811 87.8567 64.3611C85.002 66.1214 81.659 68.4232 78.2831 70.8567C71.5288 75.7254 64.5899 81.1597 61.0638 83.9348C59.4214 85.2275 57.5512 86.0985 55.3275 86.9367C54.4675 87.2608 53.5186 87.5918 52.5077 87.9443C50.9987 88.4707 49.3508 89.0453 47.6554 89.7173C41.819 92.0301 34.6572 95.7532 25.7431 104.172C11.5267 117.598 -2.02251 138.297 0.25092 163.513C2.20632 185.201 19.3873 200.186 39.1297 209.208C58.8843 218.233 81.5467 221.458 95.0745 219.405C103.486 218.127 116.406 214.252 131.058 209.136C145.732 204.014 162.21 197.623 177.768 191.282C193.326 184.94 207.973 178.646 218.985 173.715C224.489 171.249 229.091 169.122 232.445 167.5C234.122 166.689 235.494 166.001 236.514 165.457C237.488 164.938 238.253 164.495 238.609 164.181C239.063 163.783 240.714 162.577 243.357 160.707C245.971 158.858 249.497 156.401 253.643 153.533C261.934 147.796 272.696 140.42 283.586 132.98C295.79 124.641 308.157 116.221 317.38 109.942L317.391 109.934L317.418 109.915C324.631 105.004 329.915 101.406 331.682 100.189C333.9 98.6616 336.764 95.0823 339.251 90.1486C341.755 85.1781 343.935 78.7231 344.705 71.3389C346.247 56.5317 342.11 38.0623 323.752 20.4393C290.14 -11.8261 250.498 2.52711 236.771 7.49731C235.481 7.96429 234.42 8.34848 233.614 8.60334C228.975 10.0707 224.072 10.3221 218.761 10.5754L218.575 10.5843C213.353 10.8332 207.775 11.0992 201.937 12.6247C198.998 13.3928 197.098 14.1476 195.754 14.9596C194.378 15.7901 199.587 10.8842 192.957 17.5259C186.326 24.1677 177.897 26.1081 175.151 26.8771ZM191.923 21.7428C216.869 16.4124 234.213 22.8282 249.911 28.6353H249.912C255.184 30.5855 260.27 32.4671 265.397 33.8119C270.847 35.2416 276.749 38.4681 282.505 42.2858C288.273 46.1112 293.969 50.5818 299.002 54.5515L299.484 54.9321C304.342 58.7646 308.508 62.0509 311.546 63.8559C313.153 64.8111 314.254 65.23 314.898 65.2422C315.17 65.2473 315.251 65.178 315.282 65.1466C315.335 65.0934 315.456 64.9194 315.507 64.4447C315.596 63.5898 315.212 62.3029 314.16 60.5759C313.132 58.887 311.561 56.9289 309.536 54.7841C305.491 50.4987 299.734 45.572 293.183 40.7057C280.063 30.9593 263.933 21.5809 252.264 18.099C242.976 15.328 231.081 15.148 219.913 16.0819C209.29 16.9702 199.423 18.8576 193.26 20.4038C192.932 20.7806 192.555 21.1767 192.1 21.5865C192.042 21.6385 191.984 21.6906 191.923 21.7428ZM137.074 44.0258C137.731 43.6248 138.269 43.0767 138.915 42.8568C147.802 39.8324 162.899 36.3253 178.63 35.2143C194.39 34.1014 210.791 35.7119 222.809 43.2111C229.23 47.2172 235.66 51.028 241.836 54.6885L241.837 54.6892C250.519 59.8344 258.7 64.6828 265.649 69.3603C271.578 73.3508 276.527 77.1648 280.047 80.861C283.582 84.5714 285.563 88.0459 285.791 91.3554C285.843 92.1034 285.665 92.4138 285.521 92.5538C285.359 92.7115 285.007 92.8817 284.259 92.8724C282.743 92.8535 280.347 92.1063 277.206 90.6964C270.991 87.9068 262.438 82.8043 253.397 77.1869C250.557 75.4232 247.672 73.6095 244.799 71.8047C238.556 67.8804 232.379 63.9984 226.898 60.7647C222.897 58.4029 219.242 56.3714 216.181 54.912C213.169 53.4761 210.583 52.5167 208.778 52.4443C205.812 52.3255 201.691 50.9721 196.403 49.1561C196.09 49.0483 195.772 48.9391 195.45 48.8286C190.429 47.1008 184.526 45.0701 177.934 43.5164C166.232 40.7584 152.317 39.4927 137.074 44.0258ZM120.287 108.889C73.8248 93.2418 53.0609 109.845 48.4954 119.464L48.4947 119.466C48.4882 119.478 48.4594 119.534 48.5322 119.713C48.6192 119.926 48.8254 120.235 49.2268 120.637C50.0272 121.439 51.3908 122.4 53.3055 123.497C57.1154 125.678 62.8556 128.251 69.9163 131.034C84.0232 136.594 103.249 142.932 122.466 148.581C141.681 154.231 160.855 159.183 174.855 161.975C181.867 163.374 187.53 164.22 191.239 164.354C193.128 164.423 194.368 164.299 195.016 164.058C195.148 164.008 195.228 163.965 195.273 163.936C195.265 163.914 195.254 163.889 195.24 163.858C189.664 152.195 166.797 124.552 120.287 108.889ZM195.29 164.003C195.29 164.003 195.29 164 195.29 163.994C195.291 164 195.29 164.003 195.29 164.003ZM46.6762 118.597C51.8471 107.703 73.9227 91.1461 120.929 106.976C167.887 122.791 191.217 150.772 197.056 162.986C197.318 163.534 197.431 164.197 197.107 164.833C196.807 165.422 196.245 165.754 195.716 165.949C194.664 166.341 193.074 166.44 191.167 166.371C187.286 166.231 181.49 165.356 174.461 163.955C160.381 161.145 141.144 156.176 121.898 150.517C102.651 144.859 83.3626 138.502 69.1787 132.912C62.0941 130.12 56.2449 127.503 52.306 125.249C50.3464 124.127 48.7958 123.058 47.8027 122.064C47.3073 121.568 46.8969 121.038 46.6676 120.475C46.4275 119.887 46.3764 119.229 46.6762 118.597ZM95.2166 76.1011C92.4117 76.3392 89.8064 76.6799 87.5216 77.133C103.918 66.145 138.222 52.4168 174.634 66.5004C199.961 76.2965 221.911 89.9905 237.146 101.672C244.764 107.513 250.684 112.837 254.501 116.9C256.413 118.938 257.768 120.627 258.546 121.885C258.932 122.511 259.144 122.979 259.228 123.295C259.064 123.297 258.851 123.288 258.579 123.261C257.767 123.179 256.615 122.958 255.142 122.6C252.208 121.887 248.14 120.663 243.272 119.065C233.544 115.872 220.703 111.212 207.52 106.232C181.136 96.2665 153.48 85.0578 146.728 81.8014C143.203 80.101 138.121 78.7578 132.36 77.7672C126.584 76.7735 120.056 76.1236 113.601 75.8383C107.147 75.5531 100.744 75.6317 95.2166 76.1011ZM259.269 123.556C259.269 123.556 259.269 123.552 259.27 123.546C259.269 123.553 259.269 123.556 259.269 123.556ZM259.546 123.264L259.538 123.267C259.549 123.264 259.553 123.262 259.553 123.262C259.553 123.262 259.55 123.263 259.546 123.264ZM175.359 64.6181C134.213 48.7032 95.798 67.5004 81.7013 78.8988L82.7355 80.609C85.4738 79.4164 89.9325 78.5748 95.3868 78.1116C100.812 77.651 107.126 77.5719 113.513 77.8542C119.899 78.1364 126.34 78.779 132.02 79.7559C137.718 80.7358 142.581 82.041 145.854 83.6194C152.7 86.9209 180.44 98.16 206.809 108.121C220.001 113.103 232.875 117.776 242.645 120.983C247.527 122.585 251.654 123.828 254.667 124.56C256.169 124.926 257.427 125.173 258.377 125.269C258.85 125.316 259.289 125.33 259.664 125.288C259.981 125.253 260.511 125.152 260.869 124.732C261.385 124.13 261.327 123.361 261.18 122.797C261.024 122.199 260.695 121.53 260.258 120.823C259.378 119.397 257.918 117.595 255.968 115.518C252.056 111.352 246.048 105.956 238.37 100.069C223.012 88.2938 200.896 74.4954 175.359 64.6181Z" fill="#9C92FD" fill-opacity="0.1"/>
<path fill-rule="evenodd" clip-rule="evenodd" d="M409.49 229.387C408.169 229.863 407.07 230.259 406.221 230.527C401.291 232.087 396.122 232.34 390.858 232.591L390.744 232.596C385.479 232.847 380.079 233.105 374.444 234.577C371.592 235.323 369.903 236.018 368.793 236.688C368.173 237.063 367.719 237.437 367.335 237.833C373.583 236.407 382.374 234.855 391.746 234.071C402.997 233.13 415.191 233.286 424.839 236.165C436.839 239.746 453.19 249.284 466.383 259.085C472.989 263.992 478.846 268.997 483.001 273.398C485.075 275.596 486.75 277.669 487.881 279.525C488.986 281.343 489.672 283.115 489.51 284.656C489.434 285.379 489.21 286.065 488.713 286.566C488.196 287.09 487.525 287.272 486.86 287.26C485.632 287.236 484.121 286.544 482.518 285.591C479.362 283.716 475.106 280.359 470.333 276.592L470.332 276.592L469.756 276.137C464.716 272.161 459.082 267.741 453.393 263.968C447.692 260.188 442.012 257.108 436.886 255.764C431.49 254.348 426.244 252.409 420.874 250.425C404.853 244.504 387.742 238.18 362.335 244.168C361.029 244.476 359.822 244.755 358.71 245.009C358.644 245.041 358.576 245.073 358.509 245.105C355.779 246.407 351.96 247.624 347.74 248.807C344.963 249.586 341.973 250.36 338.97 251.137L338.969 251.137C337.403 251.543 335.831 251.95 334.285 252.358C329.755 253.556 325.419 254.776 321.878 256.067C320.108 256.712 318.557 257.368 317.29 258.039C316.013 258.714 315.081 259.375 314.501 260.01L314.466 260.048C323.624 257.174 336.744 254.172 350.488 253.201C366.397 252.078 383.317 253.662 395.875 261.498C402.197 265.444 408.597 269.237 414.77 272.897C423.51 278.078 431.798 282.991 438.772 287.686C444.742 291.703 449.833 295.613 453.505 299.468C457.163 303.309 459.525 307.212 459.801 311.217C459.875 312.297 459.651 313.295 458.925 314.001C458.218 314.689 457.233 314.902 456.235 314.89C454.261 314.865 451.529 313.95 448.383 312.538C442.024 309.684 433.36 304.508 424.335 298.902C421.474 297.125 418.576 295.303 415.698 293.495C409.467 289.579 403.331 285.722 397.876 282.503C393.892 280.152 390.296 278.155 387.315 276.734C384.285 275.289 382.041 274.514 380.697 274.46C377.368 274.327 372.928 272.843 367.751 271.065C367.44 270.958 367.127 270.851 366.811 270.742C361.779 269.011 355.963 267.01 349.473 265.481C335.697 262.234 318.719 260.625 300.35 268.831C297.31 270.383 294.036 271.967 290.764 273.485C285.589 275.887 280.411 278.133 276.176 279.842C271.987 281.533 268.611 282.746 267.104 283.021C266.555 283.121 265.729 283.431 264.641 283.97C263.57 284.5 262.311 285.217 260.913 286.079C258.118 287.803 254.82 290.073 251.46 292.494C244.743 297.336 237.833 302.748 234.308 305.521C232.426 307.003 230.33 307.961 228.037 308.825C227.058 309.194 226.08 309.534 225.065 309.887C223.619 310.39 222.099 310.919 220.396 311.594C214.776 313.821 207.837 317.412 199.125 325.64C185.14 338.848 172.062 358.98 174.257 383.331C176.115 403.941 192.474 418.465 211.966 427.372C231.445 436.272 253.711 439.392 266.773 437.409C274.98 436.164 287.744 432.347 302.395 427.231C317.025 422.123 333.47 415.746 349.009 409.412C364.548 403.079 379.172 396.794 390.162 391.873C395.658 389.412 400.239 387.294 403.57 385.683C405.236 384.877 406.581 384.202 407.568 383.675C408.602 383.125 409.137 382.792 409.283 382.662C409.837 382.177 411.601 380.894 414.195 379.059C416.817 377.203 420.35 374.742 424.497 371.872C432.794 366.133 443.561 358.754 454.45 351.313C466.667 342.966 479.036 334.544 488.256 328.267C495.481 323.347 500.773 319.744 502.541 318.526C504.353 317.278 507.029 314.048 509.453 309.239C511.858 304.467 513.959 298.248 514.7 291.129C516.18 276.931 512.259 259.08 494.358 241.896C461.721 210.567 423.348 224.394 409.49 229.387ZM347.151 246.877C344.406 247.646 341.469 248.406 338.494 249.176C336.923 249.583 335.341 249.992 333.772 250.407C329.237 251.606 324.824 252.845 321.189 254.171C319.37 254.834 317.726 255.526 316.349 256.254C314.982 256.978 313.821 257.767 313.016 258.646C312.41 259.309 311.33 260.16 309.826 261.159C308.338 262.148 306.491 263.244 304.396 264.403C300.206 266.721 295.067 269.264 289.917 271.654C284.769 274.044 279.624 276.275 275.424 277.971C271.177 279.685 268.007 280.805 266.744 281.035C265.908 281.188 264.876 281.602 263.748 282.161C262.601 282.729 261.284 283.481 259.857 284.361C257.002 286.121 253.659 288.423 250.283 290.857C243.529 295.725 236.59 301.16 233.064 303.935C231.421 305.227 229.551 306.098 227.327 306.937C226.468 307.261 225.519 307.592 224.508 307.944C222.999 308.471 221.351 309.045 219.655 309.717C213.819 312.03 206.657 315.753 197.743 324.172C183.527 337.598 169.977 358.297 172.251 383.513C174.206 405.201 191.387 420.186 211.13 429.208C230.884 438.233 253.547 441.458 267.075 439.405C275.486 438.127 288.406 434.252 303.058 429.136C317.732 424.014 334.21 417.623 349.768 411.282C365.326 404.94 379.973 398.646 390.985 393.715C396.489 391.249 401.091 389.122 404.445 387.5C406.122 386.689 407.494 386.001 408.514 385.457C409.488 384.938 410.253 384.495 410.609 384.181C411.063 383.783 412.714 382.577 415.357 380.707C417.971 378.858 421.497 376.401 425.643 373.533C433.934 367.796 444.696 360.42 455.586 352.98C467.79 344.641 480.157 336.221 489.38 329.942L489.391 329.934L489.418 329.915C496.631 325.004 501.915 321.406 503.682 320.189C505.9 318.662 508.764 315.082 511.251 310.149C513.755 305.178 515.935 298.723 516.705 291.339C518.247 276.532 514.11 258.062 495.752 240.439C462.14 208.174 422.498 222.527 408.771 227.497C407.481 227.964 406.42 228.348 405.614 228.603C400.975 230.071 396.072 230.322 390.761 230.575L390.575 230.584C385.353 230.833 379.775 231.099 373.937 232.625C370.998 233.393 369.098 234.148 367.754 234.96C366.378 235.79 371.587 230.884 364.957 237.526C358.326 244.168 349.897 246.108 347.151 246.877ZM363.923 241.743C388.869 236.412 406.213 242.828 421.911 248.635H421.912C427.184 250.585 432.27 252.467 437.397 253.812C442.847 255.242 448.749 258.468 454.505 262.286C460.273 266.111 465.969 270.582 471.002 274.551L471.484 274.932C476.342 278.765 480.508 282.051 483.546 283.856C485.153 284.811 486.254 285.23 486.898 285.242C487.17 285.247 487.251 285.178 487.282 285.147C487.335 285.093 487.456 284.919 487.507 284.445C487.596 283.59 487.212 282.303 486.16 280.576C485.132 278.887 483.561 276.929 481.536 274.784C477.491 270.499 471.734 265.572 465.183 260.706C452.063 250.959 435.933 241.581 424.264 238.099C414.976 235.328 403.081 235.148 391.913 236.082C381.29 236.97 371.423 238.858 365.26 240.404C364.932 240.781 364.555 241.177 364.1 241.587C364.042 241.638 363.984 241.691 363.923 241.743ZM309.074 264.026C309.731 263.625 310.269 263.077 310.915 262.857C319.802 259.832 334.899 256.325 350.63 255.214C366.39 254.101 382.791 255.712 394.809 263.211C401.23 267.217 407.66 271.028 413.836 274.689L413.837 274.689C422.519 279.834 430.7 284.683 437.649 289.36C443.578 293.351 448.527 297.165 452.047 300.861C455.582 304.571 457.563 308.046 457.791 311.355C457.843 312.103 457.665 312.414 457.521 312.554C457.359 312.711 457.007 312.882 456.259 312.872C454.743 312.854 452.347 312.106 449.206 310.696C442.991 307.907 434.438 302.804 425.397 297.187C422.557 295.423 419.672 293.61 416.799 291.805C410.556 287.88 404.379 283.998 398.898 280.765C394.897 278.403 391.242 276.371 388.181 274.912C385.169 273.476 382.583 272.517 380.778 272.444C377.812 272.325 373.691 270.972 368.403 269.156C368.09 269.048 367.772 268.939 367.45 268.829C362.429 267.101 356.526 265.07 349.934 263.516C338.232 260.758 324.317 259.493 309.074 264.026ZM292.287 328.889C245.825 313.242 225.061 329.845 220.495 339.464L220.495 339.466C220.488 339.478 220.459 339.534 220.532 339.713C220.619 339.926 220.825 340.235 221.227 340.637C222.027 341.439 223.391 342.4 225.306 343.497C229.115 345.678 234.856 348.251 241.916 351.034C256.023 356.594 275.249 362.932 294.466 368.581C313.681 374.231 332.855 379.183 346.855 381.975C353.867 383.374 359.53 384.22 363.239 384.354C365.128 384.423 366.368 384.299 367.016 384.058C367.148 384.008 367.228 383.965 367.273 383.936C367.265 383.914 367.254 383.889 367.24 383.858C361.664 372.195 338.797 344.552 292.287 328.889ZM367.29 384.003C367.29 384.003 367.29 384 367.29 383.994C367.291 384 367.29 384.003 367.29 384.003ZM218.676 338.597C223.847 327.703 245.923 311.146 292.929 326.976C339.887 342.791 363.217 370.772 369.056 382.986C369.318 383.534 369.431 384.197 369.107 384.833C368.807 385.422 368.245 385.754 367.716 385.949C366.664 386.341 365.074 386.44 363.167 386.371C359.286 386.231 353.49 385.356 346.461 383.955C332.381 381.145 313.144 376.176 293.898 370.517C274.651 364.859 255.363 358.502 241.179 352.912C234.094 350.12 228.245 347.503 224.306 345.249C222.346 344.127 220.796 343.058 219.803 342.064C219.307 341.568 218.897 341.038 218.668 340.475C218.428 339.887 218.376 339.229 218.676 338.597ZM267.217 296.101C264.412 296.339 261.806 296.68 259.522 297.133C275.918 286.145 310.222 272.417 346.634 286.5C371.961 296.297 393.911 309.99 409.146 321.672C416.764 327.513 422.684 332.837 426.501 336.9C428.413 338.938 429.768 340.627 430.546 341.885C430.932 342.511 431.144 342.979 431.228 343.295C431.064 343.297 430.851 343.288 430.579 343.261C429.767 343.179 428.615 342.958 427.142 342.6C424.208 341.887 420.14 340.663 415.272 339.065C405.544 335.872 392.703 331.212 379.52 326.232C353.136 316.267 325.48 305.058 318.728 301.801C315.203 300.101 310.121 298.758 304.36 297.767C298.584 296.774 292.056 296.124 285.601 295.838C279.147 295.553 272.744 295.632 267.217 296.101ZM431.269 343.556C431.269 343.556 431.269 343.552 431.27 343.546C431.269 343.553 431.269 343.556 431.269 343.556ZM431.546 343.264L431.538 343.267C431.549 343.264 431.553 343.262 431.553 343.262C431.553 343.262 431.55 343.263 431.546 343.264ZM347.359 284.618C306.213 268.703 267.798 287.5 253.701 298.899L254.736 300.609C257.474 299.416 261.932 298.575 267.387 298.112C272.812 297.651 279.126 297.572 285.513 297.854C291.899 298.136 298.34 298.779 304.02 299.756C309.718 300.736 314.581 302.041 317.854 303.619C324.7 306.921 352.44 318.16 378.809 328.121C392.001 333.103 404.875 337.776 414.645 340.983C419.527 342.585 423.654 343.828 426.667 344.56C428.169 344.926 429.427 345.173 430.377 345.269C430.85 345.316 431.289 345.33 431.664 345.288C431.981 345.253 432.511 345.152 432.869 344.732C433.385 344.13 433.327 343.361 433.18 342.797C433.024 342.199 432.695 341.53 432.258 340.823C431.378 339.397 429.918 337.595 427.968 335.518C424.056 331.352 418.048 325.956 410.37 320.069C395.012 308.294 372.896 294.495 347.359 284.618Z" fill="#9C92FD" fill-opacity="0.1"/>
</svg>
