<svg width="520" height="520" viewBox="0 0 520 520" fill="none" xmlns="http://www.w3.org/2000/svg">
<path fill-rule="evenodd" clip-rule="evenodd" d="M238.868 49.3868C237.539 49.863 236.434 50.2588 235.58 50.5274C230.622 52.0869 225.423 52.3398 220.128 52.5909L220.013 52.5964C214.718 52.8474 209.286 53.1049 203.619 54.5772C200.75 55.3226 199.051 56.018 197.935 56.6878C197.311 57.0625 196.855 57.4369 196.468 57.8333C202.753 56.4066 211.595 54.8548 221.021 54.0711C232.337 53.1302 244.602 53.2865 254.306 56.1651C266.375 59.7456 282.822 69.284 296.091 79.085C302.736 83.9924 308.626 88.9971 312.805 93.3977C314.892 95.5959 316.577 97.6693 317.713 99.5255C318.826 101.343 319.516 103.115 319.353 104.656C319.276 105.379 319.051 106.065 318.551 106.566C318.031 107.09 317.356 107.272 316.687 107.26C315.452 107.236 313.932 106.544 312.32 105.591C309.145 103.716 304.865 100.359 300.064 96.5924L300.063 96.5919L299.484 96.1368C294.414 92.1614 288.747 87.7411 283.026 83.9683C277.292 80.1877 271.578 77.1085 266.423 75.7638C260.996 74.3484 255.719 72.4093 250.319 70.4251C234.204 64.5036 216.993 58.1796 191.439 64.1677C190.125 64.4756 188.912 64.7555 187.793 65.0085C187.727 65.0407 187.659 65.073 187.591 65.1053C184.845 66.407 181.004 67.6244 176.759 68.8074C173.966 69.5859 170.96 70.3597 167.939 71.1371L167.938 71.1374C166.362 71.543 164.782 71.9495 163.227 72.3583C158.67 73.5558 154.309 74.7755 150.747 76.0669C148.967 76.7123 147.407 77.3683 146.133 78.0386C144.848 78.7145 143.911 79.3755 143.328 80.0096L143.292 80.0475C152.504 77.1738 165.7 74.1721 179.524 73.2015C195.525 72.078 212.543 73.6624 225.174 81.4984C231.533 85.4437 237.97 89.2371 244.179 92.8966C252.97 98.0779 261.305 102.991 268.32 107.686C274.325 111.703 279.446 115.613 283.138 119.468C286.818 123.309 289.193 127.212 289.471 131.217C289.546 132.297 289.32 133.295 288.59 134.001C287.879 134.689 286.889 134.902 285.885 134.89C283.899 134.865 281.151 133.95 277.987 132.538C271.59 129.684 262.876 124.508 253.799 118.902C250.921 117.125 248.007 115.303 245.113 113.495C238.845 109.579 232.673 105.722 227.187 102.503C223.179 100.152 219.563 98.1554 216.564 96.7339C213.517 95.2889 211.26 94.5144 209.908 94.4605C206.56 94.3272 202.094 92.8429 196.887 91.0649C196.574 90.9584 196.259 90.8507 195.941 90.742C190.88 89.011 185.031 87.0104 178.503 85.4806C164.647 82.2338 147.57 80.6252 129.095 88.8307C126.037 90.3833 122.744 91.9667 119.453 93.485C114.248 95.8875 109.04 98.1329 104.78 99.8425C100.567 101.533 97.1712 102.746 95.6557 103.021C95.1034 103.121 94.273 103.431 93.1781 103.97C92.1016 104.5 90.8348 105.217 89.4287 106.079C86.6175 107.803 83.3001 110.073 79.9209 112.494C73.1649 117.336 66.2147 122.748 62.6699 125.521C60.7763 127.003 58.6684 127.961 56.3621 128.825C55.3778 129.194 54.3941 129.534 53.3733 129.887C51.9188 130.39 50.3894 130.919 48.6773 131.594C43.0242 133.821 36.0449 137.412 27.2824 145.64C13.216 158.848 0.0620316 178.98 2.27025 203.331C4.13917 223.941 20.5929 238.465 40.1976 247.372C59.7899 256.272 82.1847 259.392 95.3227 257.409C103.578 256.164 116.415 252.347 131.152 247.231C145.867 242.123 162.406 235.746 178.036 229.412C193.665 223.079 208.374 216.794 219.428 211.873C224.956 209.412 229.563 207.294 232.913 205.683C234.589 204.877 235.942 204.202 236.935 203.675C237.975 203.125 238.513 202.792 238.659 202.662C239.217 202.177 240.991 200.894 243.6 199.059C246.238 197.203 249.791 194.742 253.963 191.872C262.307 186.133 273.136 178.754 284.089 171.313C296.377 162.966 308.818 154.544 318.091 148.267C325.358 143.347 330.68 139.744 332.459 138.526C334.282 137.278 336.973 134.048 339.411 129.239C341.83 124.467 343.943 118.248 344.689 111.129C346.177 96.931 342.233 79.0801 324.228 61.8962C291.403 30.567 252.807 44.3937 238.868 49.3868ZM176.168 66.8771C173.406 67.6461 170.452 68.4064 167.461 69.1761C165.88 69.5829 164.289 69.9925 162.71 70.4073C158.15 71.6059 153.711 72.8453 150.054 74.1708C148.225 74.8338 146.572 75.5256 145.187 76.2545C143.812 76.9775 142.644 77.7668 141.835 78.6461C141.225 79.3086 140.139 80.16 138.626 81.159C137.129 82.1475 135.271 83.2444 133.164 84.4034C128.95 86.721 123.781 89.2638 118.601 91.6543C113.424 94.0439 108.248 96.2755 104.024 97.9709C99.7526 99.685 96.5637 100.805 95.2933 101.035C94.4527 101.188 93.4153 101.602 92.2804 102.161C91.127 102.729 89.8018 103.481 88.3665 104.361C85.4953 106.121 82.1329 108.423 78.7374 110.857C71.9439 115.725 64.9647 121.16 61.4181 123.935C59.7663 125.227 57.8851 126.098 55.6485 126.937C54.7836 127.261 53.8292 127.592 52.8124 127.944C51.2947 128.471 49.6372 129.045 47.932 129.717C42.0617 132.03 34.8583 135.753 25.8924 144.172C11.5936 157.598 -2.03425 178.297 0.252376 203.513C2.21912 225.201 19.4998 240.186 39.3567 249.208C59.226 258.233 82.0199 261.458 95.6262 259.405C104.086 258.127 117.082 254.252 131.819 249.136C146.578 244.014 163.151 237.623 178.8 231.282C194.448 224.94 209.18 218.646 220.255 213.715C225.792 211.249 230.42 209.122 233.794 207.5C235.48 206.689 236.86 206.001 237.886 205.457C238.866 204.938 239.635 204.495 239.994 204.181C240.451 203.783 242.111 202.577 244.769 200.707C247.398 198.858 250.945 196.401 255.114 193.533C263.454 187.796 274.278 180.42 285.231 172.98C297.506 164.641 309.945 156.221 319.222 149.942L319.233 149.934L319.259 149.915C326.515 145.004 331.829 141.406 333.607 140.189C335.838 138.662 338.718 135.082 341.219 130.149C343.739 125.178 345.931 118.723 346.705 111.339C348.256 96.5317 344.095 78.0623 325.63 60.4393C291.824 28.1739 251.952 42.5271 238.145 47.4973C236.847 47.9643 235.78 48.3485 234.97 48.6033C230.304 50.0707 225.372 50.3221 220.031 50.5754L219.843 50.5843C214.592 50.8332 208.98 51.0992 203.109 52.6247C200.153 53.3928 198.242 54.1476 196.89 54.9596C195.506 55.7901 200.745 50.8842 194.076 57.5259C187.407 64.1677 178.929 66.1081 176.168 66.8771ZM193.037 61.7428C218.127 56.4124 235.572 62.8282 251.361 68.6353H251.362C256.664 70.5855 261.78 72.4671 266.937 73.8119C272.418 75.2416 278.355 78.4681 284.144 82.2858C289.946 86.1112 295.675 90.5818 300.737 94.5515L301.222 94.9321C306.108 98.7646 310.298 102.051 313.353 103.856C314.97 104.811 316.077 105.23 316.726 105.242C316.999 105.247 317.08 105.178 317.112 105.147C317.164 105.093 317.287 104.919 317.338 104.445C317.428 103.59 317.041 102.303 315.983 100.576C314.949 98.887 313.369 96.9289 311.332 94.7841C307.264 90.4987 301.473 85.572 294.884 80.7057C281.689 70.9593 265.465 61.5809 253.727 58.099C244.386 55.328 232.422 55.148 221.189 56.0819C210.505 56.9702 200.58 58.8576 194.381 60.4038C194.052 60.7806 193.672 61.1767 193.214 61.5865C193.156 61.6385 193.098 61.6906 193.037 61.7428ZM137.87 84.0258C138.53 83.6248 139.071 83.0767 139.721 82.8568C148.659 79.8324 163.844 76.3253 179.667 75.2143C195.518 74.1014 212.014 75.7119 224.102 83.2111C230.56 87.2172 237.027 91.028 243.239 94.6885L243.24 94.6892C251.973 99.8344 260.201 104.683 267.191 109.36C273.154 113.351 278.132 117.165 281.672 120.861C285.227 124.571 287.22 128.046 287.45 131.355C287.501 132.103 287.323 132.414 287.178 132.554C287.015 132.711 286.661 132.882 285.909 132.872C284.383 132.854 281.974 132.106 278.815 130.696C272.563 127.907 263.961 122.804 254.867 117.187C252.011 115.423 249.109 113.61 246.22 111.805C239.94 107.88 233.727 103.998 228.215 100.765C224.19 98.4029 220.514 96.3714 217.435 94.912C214.406 93.4761 211.805 92.5167 209.989 92.4443C207.006 92.3255 202.861 90.9721 197.543 89.1561C197.228 89.0483 196.908 88.9391 196.585 88.8286C191.534 87.1008 185.597 85.0701 178.967 83.5164C167.196 80.7584 153.201 79.4927 137.87 84.0258ZM120.985 148.889C74.2532 133.242 53.3688 149.845 48.7768 159.464L48.7761 159.466C48.7695 159.478 48.7406 159.534 48.8138 159.713C48.9013 159.926 49.1087 160.235 49.5124 160.637C50.3175 161.439 51.689 162.4 53.6148 163.497C57.4468 165.678 63.2203 168.251 70.322 171.034C84.5108 176.594 103.848 182.932 123.176 188.581C142.503 194.231 161.789 199.183 175.87 201.975C182.923 203.374 188.618 204.22 192.349 204.354C194.249 204.423 195.496 204.299 196.148 204.058C196.281 204.008 196.361 203.965 196.406 203.936C196.398 203.914 196.387 203.889 196.373 203.858C190.765 192.195 167.764 164.552 120.985 148.889ZM196.424 204.003C196.424 204.003 196.424 204 196.424 203.994C196.425 204 196.424 204.003 196.424 204.003ZM46.9471 158.597C52.148 147.703 74.3517 131.146 121.63 146.976C168.862 162.791 192.327 190.772 198.199 202.986C198.463 203.534 198.576 204.197 198.251 204.833C197.949 205.422 197.384 205.754 196.852 205.949C195.793 206.341 194.195 206.44 192.276 206.371C188.373 206.231 182.543 205.356 175.474 203.955C161.311 201.145 141.963 196.176 122.605 190.517C103.247 184.859 83.8463 178.502 69.5801 172.912C62.4544 170.12 56.5713 167.503 52.6095 165.249C50.6385 164.127 49.0789 163.058 48.0801 162.064C47.5819 161.568 47.169 161.038 46.9384 160.475C46.697 159.887 46.6455 159.229 46.9471 158.597ZM95.7691 116.101C92.948 116.339 90.3275 116.68 88.0294 117.133C104.521 106.145 139.024 92.4168 175.647 106.5C201.121 116.297 223.198 129.99 238.522 141.672C246.184 147.513 252.139 152.837 255.977 156.9C257.901 158.938 259.264 160.627 260.046 161.885C260.435 162.511 260.648 162.979 260.733 163.295C260.568 163.297 260.353 163.288 260.079 163.261C259.263 163.179 258.104 162.958 256.623 162.6C253.672 161.887 249.58 160.663 244.684 159.065C234.899 155.872 221.984 151.212 208.724 146.232C182.187 136.267 154.371 125.058 147.58 121.801C144.034 120.101 138.922 118.758 133.128 117.767C127.319 116.774 120.753 116.124 114.26 115.838C107.769 115.553 101.329 115.632 95.7691 116.101ZM260.773 163.556C260.773 163.556 260.773 163.552 260.774 163.546C260.773 163.553 260.773 163.556 260.773 163.556ZM261.052 163.264L261.044 163.267C261.055 163.264 261.059 163.262 261.059 163.262C261.059 163.262 261.056 163.263 261.052 163.264ZM176.376 104.618C134.991 88.7032 96.3539 107.5 82.1754 118.899L83.2156 120.609C85.9698 119.416 90.4543 118.575 95.9403 118.112C101.397 117.651 107.748 117.572 114.171 117.854C120.595 118.136 127.073 118.779 132.786 119.756C138.517 120.736 143.409 122.041 146.7 123.619C153.586 126.921 181.487 138.16 208.009 148.121C221.278 153.103 234.226 157.776 244.053 160.983C248.963 162.585 253.115 163.828 256.145 164.56C257.655 164.926 258.92 165.173 259.877 165.269C260.352 165.316 260.793 165.33 261.17 165.288C261.489 165.253 262.022 165.152 262.383 164.732C262.902 164.13 262.844 163.361 262.696 162.797C262.539 162.199 262.208 161.53 261.768 160.823C260.883 159.397 259.415 157.595 257.453 155.518C253.519 151.352 247.476 145.956 239.754 140.069C224.306 128.294 202.062 114.495 176.376 104.618Z" fill="#9C92FD" fill-opacity="0.1"/>
<path fill-rule="evenodd" clip-rule="evenodd" d="M411.866 269.387C410.537 269.863 409.432 270.259 408.578 270.527C403.62 272.087 398.421 272.34 393.126 272.591L393.011 272.596C387.716 272.847 382.284 273.105 376.617 274.577C373.748 275.323 372.049 276.018 370.933 276.688C370.309 277.063 369.853 277.437 369.466 277.833C375.751 276.407 384.593 274.855 394.019 274.071C405.335 273.13 417.6 273.286 427.304 276.165C439.373 279.746 455.82 289.284 469.089 299.085C475.734 303.992 481.624 308.997 485.803 313.398C487.89 315.596 489.575 317.669 490.712 319.525C491.824 321.343 492.514 323.115 492.351 324.656C492.274 325.379 492.049 326.065 491.549 326.566C491.029 327.09 490.354 327.272 489.685 327.26C488.45 327.236 486.93 326.544 485.318 325.591C482.143 323.716 477.863 320.359 473.062 316.592L473.061 316.592L472.482 316.137C467.412 312.161 461.745 307.741 456.024 303.968C450.29 300.188 444.576 297.108 439.421 295.764C433.994 294.348 428.717 292.409 423.317 290.425C407.202 284.504 389.991 278.18 364.437 284.168C363.123 284.476 361.91 284.755 360.791 285.009C360.725 285.041 360.657 285.073 360.589 285.105C357.843 286.407 354.002 287.624 349.757 288.807C346.964 289.586 343.958 290.36 340.937 291.137L340.936 291.137C339.36 291.543 337.78 291.95 336.225 292.358C331.668 293.556 327.307 294.776 323.745 296.067C321.965 296.712 320.405 297.368 319.131 298.039C317.846 298.714 316.909 299.375 316.326 300.01L316.29 300.048C325.502 297.174 338.698 294.172 352.522 293.201C368.523 292.078 385.541 293.662 398.172 301.498C404.531 305.444 410.968 309.237 417.177 312.897C425.968 318.078 434.303 322.991 441.318 327.686C447.323 331.703 452.444 335.613 456.136 339.468C459.816 343.309 462.191 347.212 462.469 351.217C462.544 352.297 462.318 353.295 461.588 354.001C460.877 354.689 459.887 354.902 458.883 354.89C456.897 354.865 454.149 353.95 450.985 352.538C444.589 349.684 435.874 344.508 426.797 338.902C423.919 337.125 421.005 335.303 418.111 333.495C411.843 329.579 405.671 325.722 400.185 322.503C396.177 320.152 392.561 318.155 389.562 316.734C386.515 315.289 384.258 314.514 382.906 314.46C379.558 314.327 375.092 312.843 369.885 311.065C369.573 310.958 369.257 310.851 368.939 310.742C363.878 309.011 358.029 307.01 351.501 305.481C337.645 302.234 320.568 300.625 302.093 308.831C299.035 310.383 295.742 311.967 292.451 313.485C287.246 315.887 282.038 318.133 277.778 319.842C273.565 321.533 270.169 322.746 268.654 323.021C268.101 323.121 267.271 323.431 266.176 323.97C265.1 324.5 263.833 325.217 262.427 326.079C259.616 327.803 256.298 330.073 252.919 332.494C246.163 337.336 239.213 342.748 235.668 345.521C233.774 347.003 231.666 347.961 229.36 348.825C228.376 349.194 227.392 349.534 226.371 349.887C224.917 350.39 223.387 350.919 221.675 351.594C216.022 353.821 209.043 357.412 200.28 365.64C186.214 378.848 173.06 398.98 175.268 423.331C177.137 443.941 193.591 458.465 213.196 467.372C232.788 476.272 255.183 479.392 268.321 477.409C276.576 476.164 289.413 472.347 304.15 467.231C318.865 462.123 335.405 455.746 351.034 449.412C366.663 443.079 381.372 436.794 392.426 431.873C397.954 429.412 402.561 427.294 405.911 425.683C407.587 424.877 408.941 424.202 409.933 423.675C410.973 423.125 411.511 422.792 411.657 422.662C412.215 422.177 413.99 420.894 416.598 419.059C419.236 417.203 422.789 414.742 426.961 411.872C435.305 406.133 446.134 398.754 457.088 391.313C469.375 382.966 481.816 374.544 491.089 368.267C498.356 363.347 503.678 359.744 505.457 358.526C507.28 357.278 509.972 354.048 512.409 349.239C514.828 344.467 516.941 338.248 517.687 331.129C519.175 316.931 515.231 299.08 497.226 281.896C464.401 250.567 425.805 264.394 411.866 269.387ZM349.166 286.877C346.404 287.646 343.45 288.406 340.459 289.176C338.878 289.583 337.287 289.992 335.708 290.407C331.148 291.606 326.709 292.845 323.052 294.171C321.223 294.834 319.57 295.526 318.185 296.254C316.81 296.978 315.642 297.767 314.833 298.646C314.223 299.309 313.137 300.16 311.624 301.159C310.127 302.148 308.269 303.244 306.162 304.403C301.948 306.721 296.779 309.264 291.599 311.654C286.422 314.044 281.246 316.275 277.022 317.971C272.751 319.685 269.562 320.805 268.291 321.035C267.451 321.188 266.413 321.602 265.278 322.161C264.125 322.729 262.8 323.481 261.365 324.361C258.493 326.121 255.131 328.423 251.735 330.857C244.942 335.725 237.963 341.16 234.416 343.935C232.764 345.227 230.883 346.098 228.647 346.937C227.782 347.261 226.827 347.592 225.81 347.944C224.293 348.471 222.635 349.045 220.93 349.717C215.06 352.03 207.856 355.753 198.89 364.172C184.592 377.598 170.964 398.297 173.25 423.513C175.217 445.201 192.498 460.186 212.355 469.208C232.224 478.233 255.018 481.458 268.624 479.405C277.085 478.127 290.08 474.252 304.817 469.136C319.576 464.014 336.149 457.623 351.798 451.282C367.446 444.94 382.178 438.646 393.253 433.715C398.79 431.249 403.418 429.122 406.792 427.5C408.479 426.689 409.858 426.001 410.885 425.457C411.864 424.938 412.633 424.495 412.992 424.181C413.449 423.783 415.109 422.577 417.767 420.707C420.396 418.858 423.943 416.401 428.112 413.533C436.452 407.796 447.276 400.42 458.229 392.98C470.504 384.641 482.943 376.221 492.22 369.942L492.231 369.934L492.257 369.915C499.513 365.004 504.827 361.406 506.605 360.189C508.836 358.662 511.716 355.082 514.217 350.149C516.737 345.178 518.929 338.723 519.703 331.339C521.254 316.532 517.093 298.062 498.628 280.439C464.822 248.174 424.95 262.527 411.143 267.497C409.845 267.964 408.778 268.348 407.968 268.603C403.302 270.071 398.37 270.322 393.029 270.575L392.841 270.584C387.59 270.833 381.978 271.099 376.107 272.625C373.151 273.393 371.24 274.148 369.888 274.96C368.504 275.79 373.743 270.884 367.074 277.526C360.405 284.168 351.927 286.108 349.166 286.877ZM366.035 281.743C391.125 276.412 408.57 282.828 424.359 288.635H424.36C429.662 290.585 434.778 292.467 439.935 293.812C445.416 295.242 451.353 298.468 457.142 302.286C462.944 306.111 468.673 310.582 473.735 314.551L474.22 314.932C479.106 318.765 483.296 322.051 486.351 323.856C487.968 324.811 489.075 325.23 489.724 325.242C489.997 325.247 490.078 325.178 490.11 325.147C490.162 325.093 490.285 324.919 490.336 324.445C490.426 323.59 490.039 322.303 488.981 320.576C487.947 318.887 486.367 316.929 484.33 314.784C480.262 310.499 474.471 305.572 467.883 300.706C454.687 290.959 438.463 281.581 426.726 278.099C417.384 275.328 405.42 275.148 394.188 276.082C383.503 276.97 373.578 278.858 367.379 280.404C367.05 280.781 366.67 281.177 366.212 281.587C366.155 281.638 366.096 281.691 366.035 281.743ZM310.868 304.026C311.528 303.625 312.069 303.077 312.719 302.857C321.658 299.832 336.842 296.325 352.665 295.214C368.516 294.101 385.012 295.712 397.1 303.211C403.558 307.217 410.025 311.028 416.237 314.689L416.238 314.689C424.971 319.834 433.199 324.683 440.189 329.36C446.152 333.351 451.13 337.165 454.67 340.861C458.225 344.571 460.218 348.046 460.448 351.355C460.499 352.103 460.321 352.414 460.176 352.554C460.013 352.711 459.659 352.882 458.907 352.872C457.381 352.854 454.972 352.106 451.813 350.696C445.561 347.907 436.959 342.804 427.865 337.187C425.009 335.423 422.107 333.61 419.218 331.805C412.938 327.88 406.725 323.998 401.213 320.765C397.188 318.403 393.512 316.371 390.433 314.912C387.404 313.476 384.803 312.517 382.987 312.444C380.004 312.325 375.859 310.972 370.541 309.156C370.226 309.048 369.906 308.939 369.583 308.829C364.532 307.101 358.595 305.07 351.965 303.516C340.194 300.758 326.199 299.493 310.868 304.026ZM293.983 368.889C247.251 353.242 226.367 369.845 221.775 379.464L221.774 379.466C221.768 379.478 221.739 379.534 221.812 379.713C221.899 379.926 222.107 380.235 222.51 380.637C223.316 381.439 224.687 382.4 226.613 383.497C230.445 385.678 236.218 388.251 243.32 391.034C257.509 396.594 276.846 402.932 296.174 408.581C315.501 414.231 334.787 419.183 348.868 421.975C355.921 423.374 361.616 424.22 365.347 424.354C367.247 424.423 368.494 424.299 369.146 424.058C369.279 424.008 369.359 423.965 369.404 423.936C369.396 423.914 369.385 423.889 369.371 423.858C363.763 412.195 340.763 384.552 293.983 368.889ZM369.422 424.003C369.422 424.003 369.422 424 369.422 423.994C369.423 424 369.422 424.003 369.422 424.003ZM219.945 378.597C225.146 367.703 247.35 351.146 294.628 366.976C341.86 382.791 365.325 410.772 371.197 422.986C371.461 423.534 371.574 424.197 371.249 424.833C370.947 425.422 370.382 425.754 369.85 425.949C368.791 426.341 367.193 426.44 365.274 426.371C361.371 426.231 355.541 425.356 348.472 423.955C334.309 421.145 314.961 416.176 295.603 410.517C276.245 404.859 256.844 398.502 242.578 392.912C235.452 390.12 229.569 387.503 225.608 385.249C223.637 384.127 222.077 383.058 221.078 382.064C220.58 381.568 220.167 381.038 219.936 380.475C219.695 379.887 219.644 379.229 219.945 378.597ZM268.767 336.101C265.946 336.339 263.326 336.68 261.027 337.133C277.519 326.145 312.022 312.417 348.645 326.5C374.119 336.297 396.196 349.99 411.52 361.672C419.182 367.513 425.137 372.837 428.976 376.9C430.899 378.938 432.262 380.627 433.044 381.885C433.433 382.511 433.646 382.979 433.731 383.295C433.566 383.297 433.351 383.288 433.077 383.261C432.261 383.179 431.102 382.958 429.621 382.6C426.67 381.887 422.578 380.663 417.682 379.065C407.897 375.872 394.982 371.212 381.722 366.232C355.185 356.267 327.369 345.058 320.578 341.801C317.032 340.101 311.92 338.758 306.127 337.767C300.317 336.774 293.751 336.124 287.259 335.838C280.767 335.553 274.327 335.632 268.767 336.101ZM433.771 383.556C433.771 383.556 433.771 383.552 433.772 383.546C433.771 383.553 433.771 383.556 433.771 383.556ZM434.05 383.264L434.042 383.267C434.053 383.264 434.057 383.262 434.057 383.262C434.057 383.262 434.054 383.263 434.05 383.264ZM349.374 324.618C307.99 308.703 269.352 327.5 255.173 338.899L256.214 340.609C258.968 339.416 263.452 338.575 268.938 338.112C274.395 337.651 280.746 337.572 287.169 337.854C293.593 338.136 300.072 338.779 305.784 339.756C311.515 340.736 316.407 342.041 319.698 343.619C326.584 346.921 354.485 358.16 381.007 368.121C394.276 373.103 407.224 377.776 417.051 380.983C421.961 382.585 426.113 383.828 429.143 384.56C430.653 384.926 431.918 385.173 432.875 385.269C433.35 385.316 433.792 385.33 434.168 385.288C434.487 385.253 435.02 385.152 435.381 384.732C435.9 384.13 435.842 383.361 435.694 382.797C435.537 382.199 435.206 381.53 434.766 380.823C433.881 379.397 432.413 377.595 430.452 375.518C426.517 371.352 420.474 365.956 412.752 360.069C397.304 348.294 375.06 334.495 349.374 324.618Z" fill="#9C92FD" fill-opacity="0.1"/>
</svg>
