<svg width="125" height="140" viewBox="0 0 125 140" fill="none" xmlns="http://www.w3.org/2000/svg">
<path fill-rule="evenodd" clip-rule="evenodd" d="M0 62.7451L0 136.078V140H3.90625H121.094H125V136.078V96.0784V92.1569C125 89.9995 123.251 88.2353 121.094 88.2353C119.865 88.2353 118.704 88.8192 117.969 89.8039C104.152 108.299 80.1477 117.647 62.5001 117.647C35.4359 117.647 12.9634 97.9099 8.58476 71.9914C8.10177 69.1324 10.4142 66.6667 13.3137 66.6667H121.094C123.251 66.6667 125 64.9025 125 62.7451C125 51.3762 121.988 40.7136 116.722 31.5175C115.882 30.0506 113.82 29.9508 112.365 30.8101C110.915 31.666 109.225 32.1569 107.422 32.1569C102.028 32.1569 97.6563 27.7675 97.6563 22.3529C97.6563 20.1476 98.3815 18.1124 99.6057 16.4745C100.613 15.1272 100.737 13.0806 99.382 12.0845C89.0441 4.48617 76.2941 0 62.5001 0C27.9823 0 0 28.0919 0 62.7451ZM44.5313 41.9608C44.5313 47.3754 40.1591 51.7647 34.7656 51.7647C29.3722 51.7647 25 47.3754 25 41.9608C25 36.5462 29.3722 32.1569 34.7656 32.1569C40.1591 32.1569 44.5313 36.5462 44.5313 41.9608Z" fill="#F5F5F5"/>
</svg>
